<svg xmlns="http://www.w3.org/2000/svg" viewBox="0 0 128 128">
	<path fill="currentColor" d="M62.723.018c-2 .037-4.431.159-5.494.277c-1.05.116-2.907.38-4.131.586a74 74 0 0 0-4.541.947a78 78 0 0 0-4.325 1.22a79 79 0 0 0-3.787 1.348c-.98.385-2.928 1.258-4.33 1.938s-3.175 1.597-3.941 2.037a81 81 0 0 0-3.236 2.008a82 82 0 0 0-3.249 2.252a84 84 0 0 0-2.988 2.363c-.87.725-2.673 2.407-4.004 3.738c-1.331 1.332-3.014 3.134-3.738 4.004a90 90 0 0 0-2.436 3.08a71 71 0 0 0-1.935 2.743a93 93 0 0 0-1.549 2.445a76 76 0 0 0-1.531 2.693a76 76 0 0 0-1.625 3.248A76 76 0 0 0 4.36 40.48a78 78 0 0 0-1.283 3.561a84 84 0 0 0-1.03 3.434a68 68 0 0 0-.82 3.496A84 84 0 0 0 .6 54.53a100 100 0 0 0-.422 3.242c-.107.98-.168 3.208-.168 6.23s.06 5.251.166 6.231c.092.84.283 2.299.424 3.243a83 83 0 0 0 .574 3.306c.174.874.43 2.048.568 2.608c.139.56.516 1.904.836 2.988s.924 2.886 1.342 4.006a80 80 0 0 0 1.644 4.004a70 70 0 0 0 1.838 3.73a88 88 0 0 0 1.852 3.242a69 69 0 0 0 1.734 2.692a86 86 0 0 0 1.782 2.467c.522.693 1.505 1.929 2.185 2.746s1.946 2.219 2.81 3.115c.866.897 2.217 2.22 3.005 2.94s2.17 1.9 3.072 2.622a82 82 0 0 0 3.082 2.34a73 73 0 0 0 2.65 1.787a88 88 0 0 0 2.479 1.5c.7.404 2.22 1.208 3.379 1.787a81 81 0 0 0 3.814 1.776c.94.397 2.881 1.114 4.315 1.594c1.433.48 3.52 1.1 4.64 1.378c1.119.279 2.778.65 3.688.827a72 72 0 0 0 3.687.58c2.898.37 6.11.575 9.154.45c3.496-.034 4.916-.1 6.614-.306a86 86 0 0 0 4.004-.595a80 80 0 0 0 4.132-.9a76 76 0 0 0 4.706-1.374a78 78 0 0 0 4.406-1.637a77 77 0 0 0 3.941-1.808a81 81 0 0 0 3.287-1.742c.735-.421 2.152-1.3 3.15-1.954c1-.653 2.46-1.67 3.245-2.26a88 88 0 0 0 2.824-2.236a80 80 0 0 0 2.916-2.586a70 70 0 0 0 3.037-3.074a80 80 0 0 0 2.945-3.431a82 82 0 0 0 2.584-3.434a78 78 0 0 0 2.387-3.688c.674-1.118 1.815-3.236 2.537-4.705s1.64-3.5 2.04-4.513a84 84 0 0 0 1.331-3.688a74 74 0 0 0 1.06-3.56c.25-.944.654-2.718.9-3.942c.244-1.223.56-3.14.699-4.26s.312-2.803.384-3.744c.072-.94.131-2.976.131-4.521c0-1.546-.059-3.58-.13-4.52a95 95 0 0 0-.387-3.744a72 72 0 0 0-.7-4.26a82 82 0 0 0-.896-3.94a75 75 0 0 0-1.06-3.561a82 82 0 0 0-1.337-3.688c-.4-1.014-1.23-2.874-1.841-4.133c-.61-1.258-1.553-3.059-2.096-4a85 85 0 0 0-1.943-3.178a76 76 0 0 0-2.387-3.376a82 82 0 0 0-2.684-3.37c-.688-.804-2.17-2.379-3.29-3.5c-1.122-1.12-2.697-2.6-3.5-3.289a80 80 0 0 0-3.2-2.56a84 84 0 0 0-2.861-2.065a90 90 0 0 0-2.967-1.867c-1.014-.611-2.904-1.638-4.197-2.281s-3.154-1.5-4.133-1.904c-.979-.405-2.867-1.096-4.195-1.54a74 74 0 0 0-4.514-1.332a76 76 0 0 0-3.772-.834a87 87 0 0 0-3.56-.558a83 83 0 0 0-3.96-.402c-1.283-.094-3.436-.126-5.657-.084m1.252 3.525c1.48 0 3.428.057 4.33.127a85 85 0 0 1 2.785.264c.63.075 2.002.278 3.05.45c1.05.174 2.958.568 4.24.88c1.284.311 3.429.934 4.768 1.382c1.34.449 3.202 1.138 4.14 1.534a78 78 0 0 1 3.716 1.728a68 68 0 0 1 3.422 1.846c.369.219.919.59 1.44.922c-.07-.018-.08-.027-.159-.047c-.11-.027-.92-.203-1.795-.426a49 49 0 0 0-3.115-.668c-1.123-.193-2.314-.278-4.514-.326c-2.31-.05-3.406-.016-4.832.148a52 52 0 0 0-3.129.461c-.707.136-2.002.442-2.877.682q-1.568.443-3.1 1.002a58 58 0 0 0-2.915 1.2a49 49 0 0 0-3.047 1.552a52 52 0 0 0-3.11 1.916a55 55 0 0 0-2.865 2.113c-.77.615-2.232 1.951-3.25 2.967c-1.017 1.015-2.351 2.475-2.965 3.244a52 52 0 0 0-1.959 2.645c-.772 1.14-.873 1.24-1.168 1.164c-.176-.046-.922-.22-1.656-.387a34 34 0 0 0-2.416-.45c-.617-.082-1.656-.11-2.42-.068c-.806.046-1.692.184-2.226.348c-.488.15-1.088.377-1.334.502c-.247.125-.797.49-1.223.81s-1.074.97-1.44 1.442c-.365.473-.92 1.385-1.232 2.025c-.405.832-.725 1.804-1.123 3.4c-.386 1.553-.732 2.607-1.129 3.444a19 19 0 0 1-1.23 2.16c-.363.524-1.243 1.515-1.957 2.203c-.715.689-1.837 1.612-2.492 2.051c-.657.44-1.798 1.1-2.536 1.469q-1.377.674-2.8 1.244c-.805.316-1.949.729-2.543.916s-1.997.57-3.116.85c-1.118.279-2.463.678-2.988.888s-1.46.671-2.08 1.026c-.619.354-1.533.97-2.033 1.367s-1.19 1.034-1.533 1.414c-.344.38-.875 1.076-1.182 1.547a14 14 0 0 0-.938 1.75c-.21.493-.578 1.614-.818 2.49s-.524 2.22-.63 2.988c-.108.768-.196 1.849-.196 2.4q.011.997.137 1.985c.075.54.279 1.472.453 2.074c.174.603.563 1.611.863 2.24c.306.641 1.317 2.236 2.297 3.624a177 177 0 0 0 1.84 2.578c.048.054.33-1.348.627-3.115c.313-1.864.696-3.68.91-4.323c.203-.61.543-1.453.756-1.875s.407-.767.433-.767s.247.418.49.93a6.5 6.5 0 0 0 1.133 1.638a10 10 0 0 0 1.416 1.172c.399.255 1.157.636 1.686.848s1.743.557 2.701.767q1.708.368 3.424.692c.925.17 1.718.31 1.764.31c.045 0 .015-.08-.067-.178c-.11-.132-.11-.204-.006-.27c.09-.054-.022-.198-.295-.384c-.24-.163-1.088-1.185-1.884-2.27c-.797-1.084-1.546-2.216-1.664-2.517c-.119-.3-.22-.855-.223-1.23l-.006-.684l.285.21q.515.365 1.04.716c.414.278 1.216.654 1.78.834c.566.18 1.427.355 1.917.39c.595.043 1.904-.065 3.957-.328a199 199 0 0 1 3.175-.392c.06 0-.975-.801-2.302-1.782c-1.327-.979-2.49-1.893-2.584-2.029c-.113-.163-.144-.414-.09-.732c.045-.267.128-.557.183-.647c.079-.127.31-.081 1.043.207a15 15 0 0 0 1.641.537c.385.091 1.1.162 1.59.16a5.5 5.5 0 0 0 1.695-.279a9.4 9.4 0 0 0 1.621-.793c.449-.283 1.075-.809 1.389-1.168a9 9 0 0 0 1-1.482q.417-.835.717-1.719c.158-.49.418-1.148.576-1.463s.392-.663.521-.775a1.8 1.8 0 0 1 .467-.285c.178-.064.216-.03.164.14c-.037.122-.124.478-.195.793c-.07.315-.131.99-.133 1.5s.087 1.364.197 1.897s.37 1.393.577 1.914s1.007 2.185 1.779 3.699c1.045 2.05 1.45 2.98 1.584 3.643c.104.514.18 1.647.181 2.687a41 41 0 0 1-.183 3.56a168 168 0 0 0-.381 4.497c-.107 1.503-.258 2.962-.336 3.242s-.224.666-.322.857a1.4 1.4 0 0 1-.526.522c-.19.097-.748.255-1.238.351c-.58.114-1.666.168-3.115.155c-1.436-.013-3.583-.16-6.049-.412c-2.103-.216-3.95-.391-4.103-.391c-.225 0 .135.486 1.853 2.51c1.173 1.38 2.615 3.015 3.205 3.63c.59.617 1.642 1.59 2.336 2.163a42 42 0 0 0 2.404 1.832a25 25 0 0 0 2.243 1.351c.604.31 1.656.772 2.337 1.026c.682.253 1.682.57 2.225.705q.81.201 1.611.443c.344.11.985.2 1.426.2c.497 0 1.067-.1 1.5-.262c.384-.144.978-.513 1.32-.82a8.5 8.5 0 0 0 1.088-1.237c.257-.372.833-1.505 1.28-2.518a273 273 0 0 1 1.724-3.81a188 188 0 0 0 1.969-4.451a508 508 0 0 0 2.994-7.31a594 594 0 0 0 3.551-9.093l1.611-4.26l1.52-.076c1.166-.058 1.75-.155 2.514-.416c.547-.186 1.233-.46 1.525-.609s.856-.49 1.254-.76a22 22 0 0 0 1.596-1.242a17 17 0 0 0 1.62-1.652q.725-.882 1.372-1.823c.34-.508.88-1.453 1.197-2.101s.795-1.852 1.062-2.672l.487-1.49l1.63-.543l1.63-.543l1.716.06a19.5 19.5 0 0 1 3.297.389c.87.181 2.293.562 3.164.846c.872.283 2.021.743 2.553 1.023c.533.28 1.254.713 1.604.963q.676.494 1.314 1.037c.373.32.982.954 1.354 1.408c.371.455.931 1.342 1.244 1.971c.312.63.722 1.533.91 2.008c.187.476.506 1.506.709 2.289s.456 2.025.562 2.76s.259 2.165.34 3.18c.087 1.096.116 2.771.068 4.132c-.043 1.26-.136 2.802-.207 3.432s-.218 1.717-.33 2.416a49 49 0 0 1-1.273 5.512c-.183.605-.647 1.901-1.031 2.88a50 50 0 0 1-1.598 3.555c-.494.976-1.285 2.35-1.756 3.053c-.47.702-1.31 1.82-1.867 2.484c-.556.665-1.405 1.581-1.889 2.037a33 33 0 0 1-1.957 1.668a58 58 0 0 1-2.732 1.951c-.91.611-2.324 1.51-3.145 1.997c-.82.486-2.48 1.36-3.687 1.943s-2.968 1.348-3.912 1.7q-1.73.629-3.496 1.15c-.98.28-2.61.68-3.623.888s-2.703.48-3.752.608c-1.475.178-2.846.232-6.04.234c-2.591.001-4.7-.06-5.658-.166a82 82 0 0 1-3.752-.545a76 76 0 0 1-4.322-.885c-1.154-.279-3.643-.962-5.531-1.517c-1.888-.556-5.895-1.836-8.902-2.844q-5.281-1.774-10.553-3.574c-2.797-.958-5.229-1.832-5.403-1.944l-.177-.115a85 85 0 0 1-1.002-1.262a72 72 0 0 1-2.164-3.113A74 74 0 0 1 11 93.25c-.335-.602-.705-1.38-1.096-2.154a.9.9 0 0 0 .215.31c.14.14.254.31.254.38c0 .067.154.439.344.825s.362.701.383.701c.02 0 .037-.572.037-1.271V90.77l-.35.001a3 3 0 0 0-.637.079c-.152.04-.27.122-.277.183c-.277-.55-.59-1.12-.781-1.535a80 80 0 0 1-1.43-3.316a78 78 0 0 1-1.162-3.21a67 67 0 0 1-1.08-3.675a78 78 0 0 1-.88-3.912a66 66 0 0 1-.577-3.56a88 88 0 0 1-.326-3.23c-.072-.901-.13-2.968-.13-4.591s.059-3.688.13-4.59a79 79 0 0 1 .318-3.129a75 75 0 0 1 .508-3.242a70 70 0 0 1 .764-3.555a77 77 0 0 1 .906-3.302c.253-.827.76-2.305 1.125-3.286a78 78 0 0 1 1.453-3.562a62 62 0 0 1 1.564-3.244a86 86 0 0 1 1.602-2.86a72 72 0 0 1 1.719-2.734a74 74 0 0 1 1.94-2.734A83 83 0 0 1 17.4 25.4c.007.004.006.014.014.014c.026 0 .127-.1.223-.223c.143-.182.132-.184-.016-.07l.02-.025c.58-.7 1.944-2.18 3.029-3.29c1.086-1.109 2.575-2.543 3.309-3.187a77 77 0 0 1 2.542-2.123a77 77 0 0 1 2.385-1.795a70 70 0 0 1 2.684-1.795a78 78 0 0 1 3.256-1.924a67 67 0 0 1 3.549-1.804a74 74 0 0 1 3.513-1.502a79 79 0 0 1 3.516-1.256c.99-.323 2.708-.809 3.816-1.082a81 81 0 0 1 3.795-.826a68 68 0 0 1 3.305-.518a84 84 0 0 1 3.236-.32c.94-.072 2.92-.131 4.399-.131m23.49 9.67c.037.002.118-.002.154 0c.03.001.054.006.084.008zm-1.416.98c-.152.014-.354.02-.49.034a96 96 0 0 0-4.17.517a98 98 0 0 1 4.132-.52c.134-.013.376-.017.528-.03m15.43 2.434c.551.427 1.22.94 1.335 1.05l.006.007l-2.32.046a60 60 0 0 0-4.197.243c-1.03.108-2.523.31-3.32.449c-.798.138-2.151.427-3.006.642c-.856.216-1.579.368-1.608.338s.474-.3 1.123-.601a29 29 0 0 1 2.442-.977c.695-.234 1.812-.54 2.48-.681c.831-.175 2.117-.296 4.065-.38c1.524-.065 2.898-.11 3-.136m-34.186.863l-.203.139c.041-.03.198-.132.18-.125zm35.838.467c.064.058.197.173.285.252l-.055-.045zM99.035 19.3c-.146.01-.267.013-.402.023c.047-.004.113-.016.158-.02c.063-.004.176.001.244-.003m13.287 8.51c.297.399.553.7.813 1.064c.531.744 1.004 1.496 1.547 2.316a96 96 0 0 1-2.43-.49c-1.142-.242-2.112-.46-2.148-.496s.45-.596 1.082-1.244zm-37.218 1.35c-.062.058-.17.135-.221.188l.031-.043c.013-.017.163-.12.19-.145m-.67.783c-.012.06-.016.1.021.08l-.039.026zm-22.05 2.426l.026.002v.002zm-7.538 2.787c.07-.104.092.015.134.258c.047.27.15 2.142.229 4.164s.097 3.72.041 3.774s-1.44.647-3.076 1.316c-1.637.67-2.999 1.217-3.028 1.217s-.015-.057.028-.127s.437-.601.873-1.18a37 37 0 0 0 1.543-2.258c.412-.662 1.108-2.005 1.549-2.984s1.016-2.372 1.279-3.096c.237-.653.357-.98.428-1.084M97.422 54.92l.01.006c.004.004.01.012.015.015zM19.07 57.486c.066-.039.076.327.022.873c-.052.518-.104.949-.115.96c-.012.01-.936.11-2.055.222s-2.32.235-2.67.273l-.637.069l.573-.27c.314-.148 1.516-.671 2.67-1.164a95 95 0 0 0 2.212-.963m47.444 4.996c-.454.254-.821.476-.825.497h-.003c0-.02.372-.242.828-.497M37.389 72.615c-.579.048-.78.132-1.131.473a2.5 2.5 0 0 0-.584.969a3 3 0 0 0-.069 1.123c.047.312.212.758.368.99c.155.233.481.522.724.644c.243.123.577.223.74.223c.165 0 .496-.092.735-.205s.548-.364.685-.559c.139-.193.315-.63.393-.97c.107-.466.104-.758-.012-1.186c-.096-.356-.339-.752-.65-1.064c-.48-.48-.52-.494-1.2-.438m.05.608c.263 0 .474.117.7.386c.178.212.363.589.41.838c.046.25.022.668-.057.93c-.078.261-.244.564-.367.672a1.4 1.4 0 0 1-.477.263a.9.9 0 0 1-.445-.001a1.6 1.6 0 0 1-.414-.264c-.123-.107-.285-.42-.36-.697a2.8 2.8 0 0 1-.052-.989c.046-.267.218-.633.385-.812c.192-.208.437-.326.677-.326m67.57 1.673c.048.735.078 1.582.054 2.514l-.004.06c.032-.882-.017-1.723-.05-2.574M31.95 77.42c-.162 0-.565.091-.894.203c-.52.177-.588.24-.516.477c.046.15.094.286.107.302c.014.017.207-.022.43-.086l.404-.117v3.67h.764v-4.45zm73.084.426a34 34 0 0 1-.162 2.25c.064-.757.128-1.496.162-2.25m-78.045 1.353c-.2 0-.545.087-.765.192s-.544.401-.72.658c-.26.384-.315.615-.312 1.303c.003.547.081.98.229 1.255c.123.23.407.53.63.666c.225.137.636.248.917.248c.28 0 .691-.11.916-.248c.224-.136.507-.435.629-.666c.137-.258.224-.712.228-1.183c.005-.533-.071-.913-.254-1.26c-.144-.277-.454-.6-.697-.73c-.24-.13-.6-.235-.8-.235m-5.353.127a1.7 1.7 0 0 0-.963.287a2.4 2.4 0 0 0-.654.729c-.141.265-.234.7-.233 1.082c.002.351.114.877.248 1.174c.141.31.422.647.664.795c.232.14.611.255.846.255s.612-.086.838-.193c.235-.112.538-.421.707-.723c.212-.377.297-.729.297-1.236c0-.404-.089-.878-.207-1.105a2.9 2.9 0 0 0-.604-.73c-.291-.246-.538-.335-.94-.335m-.073.637c.241 0 .462.121.672.371c.173.205.35.564.393.797c.044.232.023.617-.045.855a2.1 2.1 0 0 1-.402.73c-.154.165-.398.296-.543.294a1.2 1.2 0 0 1-.487-.133c-.122-.071-.309-.295-.414-.498s-.191-.654-.191-1.002c0-.495.072-.717.33-1.023c.224-.267.443-.391.687-.391m5.483.023c.318.03.499.151.725.485c.248.365.291.564.248 1.113c-.039.475-.142.76-.354.986a.94.94 0 0 1-.71.317c-.295 0-.49-.095-.675-.33a2.1 2.1 0 0 1-.34-.764a2.8 2.8 0 0 1-.002-.857a1.5 1.5 0 0 1 .381-.707c.216-.203.425-.272.727-.243m-.025 4.9c-.255 0-.645.107-.866.237s-.514.472-.652.758a3 3 0 0 0-.252 1.152a2.75 2.75 0 0 0 .287 1.2c.183.363.446.65.73.796a1.6 1.6 0 0 0 .942.168c.274-.033.64-.167.814-.297s.421-.434.551-.675c.152-.283.237-.7.237-1.176c0-.489-.087-.909-.256-1.24c-.143-.28-.435-.594-.662-.711a2.3 2.3 0 0 0-.873-.211m-5.58.079c-.447.046-.655.154-.977.506c-.226.246-.477.69-.557.986s-.107.745-.06.996a4.4 4.4 0 0 0 .287.885c.11.235.378.536.594.668c.233.142.629.238.978.238c.41 0 .692-.082.938-.275c.193-.152.456-.51.586-.795s.236-.782.238-1.104a2.5 2.5 0 0 0-.287-1.13c-.168-.318-.474-.648-.73-.79c-.317-.175-.604-.227-1.01-.185m-5.35.084c-.51 0-.7.068-1.055.38c-.238.21-.505.553-.592.762c-.091.223-.137.714-.107 1.182c.036.58.134.918.351 1.223c.166.232.479.503.696.601c.22.1.615.153.892.121c.274-.03.64-.16.813-.29c.174-.13.421-.435.55-.676c.145-.27.237-.698.237-1.112c0-.37-.078-.861-.174-1.09c-.095-.228-.357-.569-.582-.757c-.322-.271-.539-.344-1.03-.344m-5.111.053c-.053-.052-.43.006-.838.13c-.674.204-.739.255-.686.534c.052.273.106.296.488.224l.43-.08v3.461h.79l-.046-2.088c-.025-1.147-.087-2.13-.138-2.181m16.04.455c.203 0 .468.128.635.306c.158.168.334.51.39.762c.058.252.056.673-.003.936c-.06.262-.257.604-.44.761c-.182.158-.398.284-.482.28a1.8 1.8 0 0 1-.432-.122c-.153-.061-.367-.284-.476-.494s-.197-.666-.197-1.013c0-.495.07-.718.328-1.024q.33-.392.678-.392m-5.353.062c.102-.002.2.024.324.08c.178.081.42.349.535.594c.144.303.192.643.15 1.066q-.059.623-.353.936c-.18.192-.436.314-.66.314c-.215 0-.49-.125-.668-.302c-.184-.185-.335-.528-.389-.883c-.066-.443-.03-.697.149-1.065c.13-.265.39-.556.576-.644a.8.8 0 0 1 .336-.096m-5.617.065c.157 0 .444.137.637.302c.3.259.356.416.402 1.139c.05.798.035.857-.332 1.225c-.213.212-.503.386-.645.386c-.141 0-.41-.133-.597-.295c-.264-.226-.357-.44-.405-.945c-.035-.359-.026-.798.018-.975a1.4 1.4 0 0 1 .357-.58c.153-.141.407-.257.565-.257m5.72 4.908c-.392-.008-.678.07-.92.25a3.6 3.6 0 0 0-.605.603c-.165.22-.273.608-.308 1.098c-.044.596.004.879.22 1.326c.2.412.422.644.809.84c.367.186.672.25.976.203c.244-.036.586-.173.762-.305c.177-.131.43-.427.565-.656c.163-.28.244-.656.244-1.146c0-.48-.086-.895-.252-1.215c-.14-.267-.403-.6-.586-.736c-.206-.154-.553-.255-.904-.262m-5.015.05c-.128 0-.5.092-.826.204c-.328.111-.596.25-.596.308s.032.189.072.293c.056.145.162.166.446.084l.373-.107v1.57c0 .864.034 1.661.076 1.772c.043.11.215.2.383.2h.302v-2.161c0-2.007-.015-2.162-.23-2.162m4.959.637c.197 0 .47.11.605.246c.136.136.314.468.395.737c.109.364.11.624.004 1.017c-.08.295-.29.645-.475.791c-.182.144-.41.26-.504.26s-.357-.167-.586-.371c-.388-.347-.416-.425-.416-1.197c0-.7.048-.877.309-1.155c.19-.202.445-.328.668-.328m27.926.48v.003c-.285.3-.692.635-.907.746c-.33.17-.746.193-2.685.137c-1.351-.04-2.734-.155-3.36-.28c-.583-.115-1.082-.185-1.113-.156h-.002v-.002c.03-.03.531.042 1.115.158c.626.125 2.01.238 3.36.278c1.939.056 2.356.035 2.685-.135c.215-.111.622-.448.907-.748m-33.254 4.259c-.489-.046-.695.002-1.053.244a2.3 2.3 0 0 0-.668.742c-.122.243-.223.72-.223 1.06c0 .51.083.735.467 1.272c.257.36.554.725.66.812c.107.088.437.159.733.159c.4 0 .642-.09.945-.344c.225-.19.488-.53.584-.758s.172-.705.172-1.059s-.078-.83-.174-1.054a2.5 2.5 0 0 0-.504-.713c-.222-.204-.53-.323-.94-.361m.037.68c.182.045.441.262.574.48c.149.243.242.63.242 1.006c0 .335-.083.773-.185.97c-.102.198-.277.395-.39.438c-.114.044-.34.08-.503.08c-.174 0-.433-.162-.627-.393c-.181-.215-.337-.543-.347-.73a7 7 0 0 1 .01-.72a1.7 1.7 0 0 1 .21-.665c.1-.155.293-.342.432-.416c.138-.074.4-.096.584-.05m.44 5.216c.048.048.107.112.138.135c-.007-.002-.053-.034-.057-.033zm.19.24c.016.019.079.074.1.098l-.074-.066zm85.227.23c-.028.045-.058.113-.086.155c-.031.048-.08.092-.113.14zm-80.258 3.862l.47.334c-.077-.053-.168-.107-.24-.158c-.077-.057-.151-.119-.23-.176m6.333 4.086c.463.27.886.497 1.39.78c-.297-.162-.682-.354-.91-.485c-.14-.08-.322-.2-.48-.295" />
</svg>
