<svg xmlns="http://www.w3.org/2000/svg" viewBox="0 0 16 16">
	<path fill="currentColor" d="M5.15 7.15a.5.5 0 0 1 .707 0l2 2a.5.5 0 0 1 0 .707l-2 2a.5.5 0 0 1-.707-.707L6.8 9.5L5.15 7.85a.5.5 0 0 1 0-.707zM11 11.5a.5.5 0 0 0-.5-.5h-2a.5.5 0 0 0 0 1h2a.5.5 0 0 0 .5-.5" />
	<path fill="currentColor" fill-rule="evenodd" d="M4 1c-1.1 0-2 .895-2 2v10c0 1.1.895 2 2 2h8c1.1 0 2-.895 2-2V5.5a.5.5 0 0 0-.146-.354l-4-4A.5.5 0 0 0 9.5 1zM3 3a1 1 0 0 1 1-1h5v3.5a.5.5 0 0 0 .5.5H13v7a1 1 0 0 1-1 1H4a1 1 0 0 1-1-1zm9.29 2L10 2.71V5z" clip-rule="evenodd" />
</svg>
