<svg xmlns="http://www.w3.org/2000/svg" viewBox="0 0 24 24">
	<path fill="currentColor" d="M4.26 12A8.2 8.2 0 0 1 4 10a8.2 8.2 0 0 1 .26-2h3.38a17 17 0 0 0-.14 2a17 17 0 0 0 .14 2h2.02a15 15 0 0 1-.16-2a15 15 0 0 1 .16-2h4.68a15 15 0 0 1 .16 2a15 15 0 0 1-.16 2h2.02a17 17 0 0 0 .14-2a17 17 0 0 0-.14-2h3.38a8.2 8.2 0 0 1 .26 2a8.2 8.2 0 0 1-.26 2h2.059A10 10 0 1 0 2.2 12Zm14.66-6h-2.95a15.7 15.7 0 0 0-1.38-3.56A8.03 8.03 0 0 1 18.92 6M12 2.04A14.1 14.1 0 0 1 13.91 6h-3.82A14.1 14.1 0 0 1 12 2.04m-2.59.4A15.7 15.7 0 0 0 8.03 6H5.08a8 8 0 0 1 4.33-3.56m3.339 15.055h2v1h-2z" />
	<path fill="currentColor" d="M20.998 14H3.002A2 2 0 0 0 1 16.002v5.996A2 2 0 0 0 3.002 24h17.996A2 2 0 0 0 23 21.998v-5.996A2 2 0 0 0 20.998 14M9.251 22.005h-1.5v-6h1.5Zm6.998-3.51a1.473 1.473 0 0 1-1.5 1.5h-2v2h-1.5v-6h3.5a1.473 1.473 0 0 1 1.5 1.5Z" />
</svg>
