<svg xmlns="http://www.w3.org/2000/svg" viewBox="0 0 36 36">
	<path fill="currentColor" d="M10 17h14v2H10z" class="clr-i-outline--alerted clr-i-outline-path-1--alerted" />
	<path fill="currentColor" d="M6 25h2v2H6z" class="clr-i-outline--alerted clr-i-outline-path-2--alerted" />
	<path fill="currentColor" d="M10 25h14v2H10z" class="clr-i-outline--alerted clr-i-outline-path-3--alerted" />
	<path fill="currentColor" d="M18.64 11A3.7 3.7 0 0 1 19 9.89l.56-.89H10v2Z" class="clr-i-outline--alerted clr-i-outline-path-4--alerted" />
	<path fill="currentColor" d="M33.68 15.4H32V21H4v-6h16.58A3.67 3.67 0 0 1 19 13.56a3.6 3.6 0 0 1-.26-.56H4V7h16.71l1.15-2H4a2 2 0 0 0-2 2v22a2 2 0 0 0 2 2h28a2 2 0 0 0 2-2V15.38ZM4 29v-6h28v6Z" class="clr-i-outline--alerted clr-i-outline-path-5--alerted" />
	<path fill="currentColor" d="M26.85 1.14L21.13 11a1.28 1.28 0 0 0 1.1 2h11.45a1.28 1.28 0 0 0 1.1-2l-5.72-9.86a1.28 1.28 0 0 0-2.21 0" class="clr-i-outline--alerted clr-i-outline-path-6--alerted clr-i-alert" />
	<path fill="none" d="M0 0h36v36H0z" />
</svg>
