<svg xmlns="http://www.w3.org/2000/svg" viewBox="0 0 640 640">
	<path fill="currentColor" d="M320 32c13.3 0 24 10.7 24 24v48c0 13.3-10.7 24-24 24s-24-10.7-24-24V56c0-13.3 10.7-24 24-24m0 160c12.4 0 22.7 9.4 23.9 21.7l13.5 141.9L531.6 75.3c6.7-10.7 20.5-14.5 31.7-8.5s15.8 19.5 10.6 31L436.8 402.6c2.2 2.3 4.3 4.7 6.3 7.1l97.2-54.7c10.5-5.9 23.6-3.1 30.9 6.4s6.3 23-2.2 31.5l-87 87h-71.4c-13.2-37.3-48.7-64-90.5-64s-77.4 26.7-90.5 64H150l-75.5-52.3c-9.9-6.6-13.3-19.5-8.1-30.1s17.4-15.9 28.7-12.4l97.2 30.4c3-3.9 6.1-7.6 9.4-11.3l-62.3-103.9c-6.1-10.1-3.9-23.1 5.1-30.7s22.2-7.5 31.1.1L278 357.6c1.5-.4 3-.8 4.5-1.1l13.6-142.7c1.2-12.3 11.5-21.7 23.9-21.7zM96 528h456c13.3 0 24 10.7 24 24s-10.7 24-24 24H88c-13.3 0-24-10.7-24-24s10.7-24 24-24z" />
</svg>
