<?xml version="1.0" encoding="UTF-8" standalone="no"?>
<!-- Created with Inkscape (http://www.inkscape.org/) -->

<svg
   width="94.01561mm"
   height="79.361412mm"
   viewBox="0 0 94.015609 79.361412"
   version="1.1"
   id="svg1"
   xml:space="preserve"
   xmlns="http://www.w3.org/2000/svg"
   xmlns:svg="http://www.w3.org/2000/svg"><defs
     id="defs1" /><g
     id="layer1"
     transform="translate(-60.304956,-119.40945)"><path
       style="fill:#000000"
       d="m 137.98881,198.25611 c -0.6868,-0.39899 -3.1561,-2.60067 -5.48733,-4.89263 -4.50697,-4.43105 -4.69662,-4.53945 -6.11097,-3.49281 -9.99655,7.39759 -28.19488,7.65957 -39.540472,0.5692 -3.862215,-2.41367 -6.302956,-4.53411 -10.539615,-9.15651 l -0.750032,-0.81832 h -6.039469 -6.03947 l -0.684978,-0.81405 c -0.509238,-0.60519 -0.684978,-1.112 -0.684978,-1.97539 0,-0.63875 -0.200645,-1.58211 -0.445879,-2.09637 -0.418116,-0.8768 -0.418116,-0.99324 0,-1.87004 0.329685,-0.69135 0.445879,-1.6528 0.445879,-3.68941 0,-3.78776 0.326911,-4.19393 3.480134,-4.32387 2.66857,-0.10997 2.878024,-0.28975 2.574512,-2.20975 -0.314359,-1.98862 -0.569497,-2.14985 -3.44792,-2.17878 l -2.45072,-0.0246 -0.60717,-0.89902 c -0.495071,-0.73304 -0.607169,-1.2542 -0.607169,-2.82283 0,-1.31056 -0.140337,-2.16833 -0.44025,-2.6909 -0.41061,-0.71544 -0.41061,-0.8265 0,-1.64959 0.246655,-0.49443 0.44025,-1.50827 0.44025,-2.30556 0,-1.71192 0.519207,-3.06605 1.395828,-3.64044 1.248539,-0.81807 2.094292,0.30483 0.985422,1.30834 -1.362703,1.23323 -0.575574,1.98438 2.079435,1.98438 2.024321,0 2.947648,-0.45915 2.947648,-1.46579 0,-3.80042 5.497789,-13.60764 10.303255,-18.37945 3.764471,-3.73811 8.898807,-7.20577 12.71905,-8.59028 15.973199,-5.78892 31.686879,-2.25977 43.520399,9.77431 1.45521,1.47987 2.95574,3.15865 3.33452,3.73063 2.02294,3.05478 3.16615,5.0757 3.96288,7.00544 1.10606,2.67895 1.12377,2.68753 5.49776,2.66245 5.19577,-0.0298 5.85677,0.49839 5.85756,4.68051 2.7e-4,1.44849 0.13757,2.46119 0.40336,2.97519 0.37134,0.71809 0.36096,0.86155 -0.13229,1.8284 -0.32571,0.63845 -0.53525,1.56631 -0.53525,2.37018 0,2.72027 -0.71992,3.19799 -4.81937,3.19799 -3.32308,0 -3.52503,0.10875 -3.74957,2.01928 -0.22685,1.93017 -0.20847,1.94041 3.49311,1.94542 4.22152,0.006 5.05536,0.54969 5.07583,3.31134 0.008,1.13823 0.15355,1.772 0.51275,2.23943 0.49182,0.64001 0.49172,0.66496 -0.006,1.36376 -0.32047,0.45007 -0.50687,1.15355 -0.50687,1.91301 0,0.88785 -0.16641,1.39481 -0.638,1.94353 l -0.63801,0.74236 -5.88882,0.13229 -5.88883,0.13229 -1.45013,2.11667 c -0.79757,1.16416 -1.96815,2.8026 -2.60129,3.64097 -1.52957,2.02537 -1.7047,1.64678 2.97422,6.42956 2.26897,2.31933 4.2335,4.49261 4.36563,4.8295 1.37565,3.50755 -2.4484,6.99339 -5.6387,5.13999 z m 3.37742,-2.03633 c 1.61945,-1.61945 1.70272,-1.49925 -7.28807,-10.52035 -0.94589,-0.94907 -2.01745,-2.0385 -2.38125,-2.42095 -3.32732,-3.49791 -8.09047,-8.1051 -8.37946,-8.1051 -0.58835,0 -2.13215,1.13007 -2.58036,1.88884 -0.64044,1.08418 -0.51889,1.47877 0.82706,2.68477 0.68437,0.61321 4.82693,4.71657 9.20568,9.11858 8.83949,8.88641 8.97213,8.97847 10.5964,7.35421 z m -33.53473,-2.84307 c 1.2721,-1.2721 0.23085,-2.06375 -2.71446,-2.06375 -4.07724,0 -3.77659,-1.77023 0.32414,-1.9084 3.05233,-0.10284 3.7972,-1.6047 1.09068,-2.19915 -1.19401,-0.26225 -1.40371,-0.95315 -1.36319,-4.49141 0.0431,-3.76382 -0.14654,-4.22759 -1.83805,-4.4951 -0.62411,-0.0987 -1.56368,-0.30213 -2.08792,-0.45206 -1.68378,-0.48154 -2.08954,-0.0328 -2.08954,2.31064 0,1.52717 0.105,2.0807 0.46302,2.44089 2.04695,2.05934 2.22587,3.52212 0.62644,5.12155 -2.87121,2.87122 -6.543013,-1.26824 -3.80915,-4.2943 l 0.98448,-1.0897 -0.0691,-2.54908 c -0.11466,-4.22916 -0.59006,-4.50416 -3.114674,-1.80172 -0.859811,0.92037 -2.426496,2.59705 -3.481522,3.72596 -2.800421,2.99653 -2.725639,3.17701 2.134025,5.1505 1.155522,0.46925 0.936907,1.7697 -0.288064,1.71358 -1.131873,-0.0519 -4.457452,-1.64033 -5.678307,-2.71225 -1.362222,-1.19605 -1.155808,-1.56915 3.505546,-6.33635 2.256521,-2.30776 3.964821,-4.26845 3.964821,-4.55059 0,-0.57427 -0.979641,-1.57468 -1.541995,-1.57468 -0.721136,0 -10.628838,10.42849 -10.628838,11.18753 0,1.05751 8.008664,5.90741 11.709198,7.09088 5.36578,1.71603 12.98905,2.69043 13.90247,1.77701 z m 6.32933,-0.50246 c 4.22064,-0.90603 7.22548,-2.10447 10.44701,-4.16665 1.85839,-1.18959 1.86657,-1.34788 0.16483,-3.18991 -2.60439,-2.81906 -9.27344,-9.55056 -9.46199,-9.55056 -0.10413,0 -1.13304,0.40742 -2.28644,0.90537 -1.15341,0.49796 -2.87102,1.04418 -3.8169,1.21383 -2.41076,0.43239 -2.38125,0.38488 -2.38125,3.83392 0,3.38547 0.17284,3.76028 1.50261,3.25835 1.57894,-0.59599 1.67239,-0.38229 1.67239,3.82418 0,4.96393 -0.17419,4.80183 4.15974,3.87147 z m -0.86804,-3.001 c -0.84901,-0.63046 -0.19451,-1.18111 2.39277,-2.01314 1.30674,-0.42022 3.06434,-1.12492 3.90582,-1.56601 1.72079,-0.90202 2.11441,-0.96674 2.5665,-0.42201 1.17173,1.41185 -7.23959,5.20821 -8.86509,4.00116 z m -13.87505,-4.38112 c 0,-1.43083 -1.81049,-1.64605 -2.24811,-0.26723 -0.20633,0.65008 0.0136,1.03304 0.75384,1.31284 0.83851,0.31693 1.49427,-0.14193 1.49427,-1.04561 z m -13.423958,-8.16572 c 5.65878,-5.695 5.682437,-5.73407 4.428131,-7.31241 -0.436563,-0.54934 -0.79375,-1.10405 -0.79375,-1.23268 0,-1.44579 -2.473765,-0.52121 -2.906643,1.08638 -0.700151,2.60016 -4.452767,2.9402 -5.705839,0.51703 -1.146751,-2.21758 0.422552,-4.36755 2.988223,-4.09393 3.846413,0.41022 4.470582,0.14675 4.078271,-1.7215 -0.135113,-0.64343 -0.259198,-1.69622 -0.275743,-2.33952 -0.07597,-2.95366 -5.565802,-3.15885 -5.595017,-0.20912 -0.01808,1.82584 -0.994206,2.3048 -4.697209,2.3048 -4.916704,0 -5.141235,-0.23665 -5.026413,-5.29786 0.06765,-2.98181 0.121982,-3.30371 0.572207,-3.39006 0.778831,-0.14935 0.949343,0.42549 0.953695,3.21521 0.0057,3.63138 -0.0035,3.62063 3.073463,3.62063 3.0964,0 3.545172,-0.1994 3.545172,-1.57517 0,-2.16933 0.766365,-2.65817 4.167277,-2.65817 2.477246,0 2.976473,-0.20313 2.976473,-1.21114 0,-0.76974 -0.390798,-1.03731 -2.101062,-1.43855 -1.419631,-0.33307 -1.869551,-0.6703 -3.144583,-2.357 l -0.615436,-0.81414 H 76.29715 c -6.389239,0 -6.368227,-0.006 -6.622068,1.98438 -0.759711,5.95779 1.229411,14.5269 4.811794,20.72915 1.615068,2.7962 5.262786,7.44897 5.839903,7.44897 0.244817,0 2.794968,-2.36489 5.667003,-5.2553 z m -6.500952,1.22944 c -1.702975,-1.70298 -5.474631,-9.37025 -5.47495,-11.12984 -3.03e-4,-1.67165 1.504794,-1.00849 2.129278,0.93817 0.661601,2.06237 2.384596,5.59876 3.728515,7.65266 1.66871,2.55027 1.401376,4.32323 -0.382843,2.53901 z m 55.40677,1.84305 c 4.4553,-5.21397 7.38413,-12.1428 8.1874,-19.3692 0.38747,-3.48579 0.65874,-3.31993 -5.42139,-3.31477 -5.32963,0.005 -5.14773,-0.0425 -5.94875,1.53732 -0.80289,1.58351 -1.67019,1.90124 -4.777,1.75006 -2.91117,-0.14166 -3.17923,0.002 -3.18359,1.7019 -0.004,1.51663 -0.52539,3.43928 -1.42618,5.25797 -1.19949,2.42178 -1.2524,2.33596 5.45964,8.85554 5.7496,5.58474 5.50368,5.46087 7.10987,3.58118 z m -5.48317,-5.07996 c -0.081,-0.21098 0.3712,-1.31231 1.0048,-2.44739 1.72222,-3.08534 3.8018,-7.67121 4.31964,-9.5256 0.66534,-2.38259 2.24771,-3.37066 2.24771,-1.40353 0,4.018 -6.65322,15.7712 -7.57215,13.37652 z m -55.91002,3.14024 c 0.287358,-0.34624 0.283452,-0.51727 -0.02266,-0.99218 -0.668355,-1.03691 -2.802392,-5.56269 -3.547316,-7.523 -0.401718,-1.05715 -0.949622,-2.03942 -1.217563,-2.18282 -0.619734,-0.33167 -3.70158,-0.3332 -4.226122,-0.002 -0.49614,0.31317 -0.744809,9.20082 -0.290727,10.39086 l 0.27763,0.7276 h 4.339777 c 3.633852,0 4.396255,-0.068 4.686984,-0.41836 z m 36.36238,-2.45604 c 10.45041,-2.73144 15.20041,-13.65097 10.15598,-23.34702 -5.93074,-11.39963 -23.59851,-11.04213 -28.907958,0.58494 -5.795607,12.69171 5.379948,26.25715 18.751978,22.76208 z m -7.80521,-2.26724 c -10.131716,-2.82368 -13.568025,-14.98375 -6.44605,-22.81064 8.74591,-9.61156 24.69548,-2.76649 24.11054,10.34751 -0.39913,8.94827 -8.8591,14.91717 -17.66449,12.46313 z m 6.39596,-1.59178 C 123.04098,169.05369 119.92761,147.77543 105,148.5 c -9.3601,0.45433 -14.519563,11.12267 -9.11174,18.84058 2.66904,3.8092 7.87577,5.79872 12.57128,4.80354 z m -2.77083,-4.01715 c -0.34603,-0.34602 -0.18779,-1.43601 0.23184,-1.59703 0.63897,-0.2452 1.36476,0.60261 1.00497,1.17392 -0.31543,0.5009 -0.94401,0.71593 -1.23681,0.42311 z m -5.21263,-3.26527 c -0.9151,-0.57508 -3.99977,-3.89151 -4.143,-4.45428 -0.19636,-0.77149 3.64605,-4.81321 4.57586,-4.81321 1.30596,0 1.02552,1.09673 -0.71038,2.77813 -1.83069,1.7732 -1.83075,1.80493 -0.008,3.70308 1.63834,1.70616 1.85454,2.16273 1.29098,2.72629 -0.3791,0.3791 -0.48734,0.38556 -1.00541,0.06 z m 10.06471,-0.12667 c -0.48243,-0.58128 -0.13035,-1.27873 1.3199,-2.61462 1.67592,-1.5438 1.65819,-1.94995 -0.1621,-3.71304 -1.60183,-1.55149 -1.87733,-2.59873 -0.72678,-2.7626 0.57502,-0.0819 3.85586,2.85343 4.51169,4.03656 0.82957,1.49657 -3.89001,6.32213 -4.94271,5.0537 z m -4.98471,-0.72707 c -0.87905,-0.87905 -0.31667,-11.58875 0.60855,-11.58875 0.76707,0 0.90428,1.00143 0.83804,6.1164 -0.0747,5.76406 -0.3005,6.61843 -1.44659,5.47235 z m 14.71613,11.27709 c 1.47424,-1.2619 1.46271,-3.28667 -0.0187,-3.28667 -0.58844,0 -3.10863,2.25008 -3.10863,2.77545 0,1.53186 1.6247,1.79744 3.12736,0.51122 z m 31.1774,-1.23615 c 0.38666,-0.53658 0.25257,-6.96106 -0.15555,-7.45282 -0.44991,-0.5421 -6.28675,-0.61594 -6.94137,-0.0878 -0.22546,0.1819 -0.61888,1.10464 -0.87426,2.05052 -0.25537,0.94589 -0.81151,2.48807 -1.23585,3.42708 -0.42435,0.939 -0.71227,1.86174 -0.63982,2.05052 0.18641,0.48578 9.49728,0.49761 9.84685,0.0125 z m -66.700397,-4.28653 c 0.769473,-1.17436 -0.03033,-2.23021 -1.318416,-1.74048 -0.864412,0.32865 -1.119732,1.22973 -0.53235,1.87878 0.628218,0.69417 1.340169,0.64097 1.850766,-0.1383 z M 67.402855,159.16646 c 0.349516,-0.42114 0.472037,-5.93345 0.14369,-6.46472 -0.244825,-0.39614 -4.187324,-0.36609 -4.588382,0.035 -0.436686,0.43669 -0.436686,6.07206 0,6.50875 0.481818,0.48182 4.031617,0.41872 4.444692,-0.079 z m 61.891525,-0.21375 c 0.66722,-0.23288 0.98314,-0.55039 1.20328,-1.20931 0.5455,-1.63277 1.16175,-1.89478 4.34017,-1.84529 7.93334,0.12353 9.21155,-0.0851 8.58932,-1.40178 -0.16164,-0.34205 -0.50194,-1.81254 -0.75623,-3.26774 -1.66903,-9.55135 -7.8718,-18.35843 -16.64584,-23.63482 -2.99817,-1.80298 -3.03992,-1.73827 -3.051,4.73034 -0.01,5.85422 -0.18333,5.54302 3.0866,5.54302 h 2.46 l 0.98178,-0.92604 c 2.19529,-2.07067 5.29504,-0.64909 5.19231,2.38125 -0.0757,2.23214 1.63152,5.54814 3.07978,5.98205 2.20784,0.66149 2.93312,3.28275 1.37099,4.95502 -2.58338,2.76551 -6.29118,-0.28299 -4.61623,-3.7954 l 0.45115,-0.94606 -0.86106,-1.69505 c -1.35536,-2.66814 -2.65723,-2.67915 -4.01395,-0.034 -0.82805,1.61447 -0.83517,1.6595 -0.41918,2.65507 1.01356,2.42581 0.002,4.5858 -2.26697,4.84157 -3.56774,0.40213 -4.73246,-4.30352 -1.42709,-5.76564 1.33366,-0.58994 1.47783,-0.7446 2.52702,-2.71076 0.95535,-1.79029 0.97272,-2.03836 0.19389,-2.77003 -0.76317,-0.71698 -5.13354,-0.76097 -5.49827,-0.0554 -0.42703,0.82615 -1.04293,2.33804 -1.04293,2.56015 0,0.12717 -0.89297,1.11823 -1.98438,2.20235 -2.37718,2.36133 -2.34319,1.94344 -0.36104,4.43872 0.89284,1.12397 1.98608,2.81748 2.42943,3.76337 0.97744,2.08537 1.06113,2.14891 2.5733,1.95364 1.53401,-0.19809 2.20834,0.37648 1.43924,1.22632 -0.26092,0.28831 -0.66758,0.5242 -0.90369,0.5242 -1.21079,0 -2.06744,1.54875 -1.28786,2.32834 0.41192,0.41192 4.01228,0.39249 5.21746,-0.0282 z m -2.81318,-25.703 c -1.49374,-1.45746 -1.69978,-1.76688 -1.40949,-2.11666 0.97055,-1.16945 4.97099,1.93601 4.24395,3.29449 -0.4553,0.85074 -0.97803,0.63352 -2.83446,-1.17783 z m 24.84019,24.81704 c 0.43512,-0.39379 0.48385,-0.92483 0.48385,-5.27277 0,-6.03071 0.25576,-5.66644 -3.97834,-5.66644 -3.8613,0 -3.92284,0.0552 -3.32002,2.97845 0.21735,1.05399 0.47397,3.22603 0.57026,4.82676 0.13093,2.17661 0.28013,2.99381 0.59174,3.24115 0.66316,0.52638 5.04423,0.44333 5.65251,-0.10715 z m -61.811863,-5.78489 c 0.748826,-1.6371 2.424002,-3.73237 4.968426,-6.21437 2.071057,-2.02025 2.089587,-2.47675 0.192549,-4.74256 -1.987922,-2.37435 -0.961948,-5.30989 1.855818,-5.30989 1.047,0 1.25845,-0.13151 2.87131,-1.78593 3.43202,-3.52045 3.72428,-3.9266 3.72428,-5.17572 0,-0.62661 0.16875,-1.37007 0.375,-1.65213 0.77805,-1.06405 -0.63579,-1.4848 -3.10211,-0.92318 -6.216022,1.4155 -7.733126,2.02595 -11.792353,4.74505 -3.711455,2.48613 -3.3925,2.33917 -3.923805,1.80787 -1.69437,-1.69437 7.367482,-6.9758 14.383788,-8.38316 7.43142,-1.49062 20.17949,0.27181 18.69999,2.5853 -0.36396,0.56912 -1.23437,0.52944 -3.92489,-0.17893 -1.16416,-0.3065 -2.87697,-0.63646 -3.80624,-0.73323 l -1.68958,-0.17596 0.19845,0.90012 c 0.10914,0.49506 0.23306,1.49542 0.27537,2.22303 0.0423,0.7276 0.0883,1.46517 0.10207,1.63904 0.0721,0.90676 4.84555,5.10784 5.80817,5.11173 2.41043,0.01 4.52691,3.90483 2.53675,4.66853 -0.21025,0.0807 -0.38228,0.26369 -0.38228,0.4067 0,0.14301 -0.244,0.45769 -0.54222,0.6993 -1.16927,0.94728 -1.15126,3.24474 0.0284,3.61914 0.54787,0.17389 3.78409,-2.65316 4.54874,-3.97361 0.26216,-0.45272 0.53425,-8.44448 0.47291,-13.89062 -0.0279,-2.47721 -0.4638,-2.89718 -4.2432,-4.08806 -10.37195,-3.26816 -23.91377,-1.33622 -31.485417,4.49186 -0.654844,0.50405 -1.607344,1.19826 -2.116667,1.54269 -1.537583,1.03979 -5.356514,4.87122 -5.227876,5.245 0.07221,0.20982 0.426575,0.31611 0.888079,0.26637 6.702079,-0.72229 8.042823,-0.36135 8.252489,2.22162 0.100297,1.2356 0.286773,1.74837 0.885309,2.43441 0.930448,1.06648 0.945606,1.47768 0.09187,2.49229 -0.616624,0.73281 -0.661164,0.9658 -0.596573,3.12066 0.103272,3.44532 0.111122,3.43982 -4.908787,3.43982 -5.017275,0 -4.940764,0.05 -4.940764,-3.22949 v -2.35373 l -0.98822,-0.90533 -0.988219,-0.90533 1.178155,-1.20045 c 1.276266,-1.30042 2.018846,-4.89942 1.010896,-4.89942 -2.158732,0 -8.870633,13.57857 -7.379112,14.92837 1.227761,1.11111 3.19775,0.33567 3.19775,-1.25872 0,-1.19617 0.348349,-1.7634 1.082943,-1.7634 0.549393,0 0.769141,0.52608 0.769141,1.84133 0,1.39805 0.261258,1.51894 3.704166,1.71407 3.815344,0.21624 3.717158,0.18227 4.610396,1.59541 1.568354,2.4812 4.191023,2.48293 5.325135,0.004 z m 38.596613,-3.18884 c 0.54463,-0.54463 0.5246,-0.79831 -0.1134,-1.43631 -0.92496,-0.92496 -2.11666,-0.53017 -2.11666,0.70123 0,1.03476 1.45182,1.51332 2.23006,0.73508 z m 10.0503,-0.43611 c 0.19897,-0.56913 0.14992,-0.83192 -0.23457,-1.25677 -0.83308,-0.92055 -1.82154,-0.59027 -2.03194,0.67895 -0.23825,1.43722 1.78569,1.9532 2.26651,0.57782 z m -52.346214,-1.82392 c 0.100123,-0.162 0.218803,-1.32286 0.263733,-2.57968 0.04493,-1.25683 0.09569,-2.64233 0.112799,-3.07889 0.141419,-3.60857 -0.587923,-4.63021 -3.30547,-4.63021 -2.668375,0 -3.102305,0.67138 -3.078122,4.7625 0.003,0.50932 0.007,1.78732 0.0088,2.83999 0.0051,2.91912 0.07131,2.98084 3.195266,2.98084 1.639637,0 2.689066,-0.11028 2.802952,-0.29455 z m 27.842104,-3.46253 c 0.51631,-0.51631 0.37231,-1.0129 -0.60855,-2.09859 -0.83557,-0.92488 -0.92604,-1.17595 -0.92604,-2.56992 v -1.54491 l -1.77577,-1.82777 c -3.646,-3.75276 -3.78048,-3.6766 -3.78048,2.14098 0,4.90839 -0.0743,4.73972 2.25804,5.12685 0.86813,0.1441 2.05468,0.4401 2.63675,0.65778 1.32097,0.49401 1.79278,0.51884 2.19605,0.11558 z m -13.06806,-0.34682 c 0.71435,-0.21671 1.68343,-0.39401 2.1535,-0.39401 1.86507,0 1.99794,-0.37629 1.91407,-5.42058 -0.0935,-5.62452 -0.11036,-5.63718 -3.29659,-2.47681 l -2.22692,2.20885 0.16575,1.22922 c 0.18767,1.39189 -0.19748,2.3746 -1.30632,3.33309 -1.72047,1.48717 -0.2099,2.3716 2.59651,1.52024 z m -3.29246,-3.28711 c 0.45748,-0.85481 -0.10162,-1.923 -0.95303,-1.82082 -1.029629,0.12357 -1.53067,0.99709 -1.003573,1.74963 0.507003,0.72384 1.586293,0.76312 1.956603,0.0712 z m 18.77179,0.0255 c 0.42757,-0.79893 0.0563,-1.5809 -0.84457,-1.77876 -1.2903,-0.2834 -1.79618,0.79062 -0.91115,1.93442 0.38248,0.49431 1.45894,0.39887 1.75572,-0.15566 z m 16.54045,0.0706 c 0.56554,-0.56553 0.52233,-1.25786 -0.11446,-1.83415 -0.76354,-0.691 -1.85101,-0.1808 -1.85101,0.86842 0,1.29112 1.09973,1.83147 1.96547,0.96573 z m -26.02516,-9.6477 c 0.68511,-0.36666 0.66403,-1.47809 -0.0351,-1.85227 -1.16622,-0.62414 -2.5089,1.17781 -1.37132,1.84039 0.59222,0.34493 0.78116,0.34653 1.40646,0.0119 z"
       id="path1" /></g></svg>
