<svg xmlns="http://www.w3.org/2000/svg" viewBox="0 0 100 100">
	<path fill="currentColor" d="M13.996 0a2.5 2.5 0 0 0-2.5 2.5V70H0v22h11.496v5.5a2.5 2.5 0 0 0 2.5 2.5h72a2.5 2.5 0 0 0 2.5-2.5V21.625c.027-1.113.004-1.777-.732-2.59L69.46.732A2.5 2.5 0 0 0 67.662 0zm2.5 5h48.902l1.252 14.568a2.5 2.5 0 0 0 2.278 2.278l14.568 1.252V95h-67v-3H80V70H16.496zm54.275 4.115l8.61 8.61l-7.928-.682zM10.48 73q2.055 0 3.207 1.137q1.158 1.127 1.49 3.125l-2.213.543q-.234-1.067-.881-1.68q-.64-.623-1.603-.623q-1.46 0-2.325 1.217q-.859 1.215-.86 3.607q0 2.581.874 3.877q.874 1.285 2.289 1.285q.7 0 1.398-.355a4.7 4.7 0 0 0 1.213-.881v-1.838h-2.55v-2.443h4.8v5.775q-.7.89-2.03 1.572q-1.326.673-2.688.672q-1.731 0-3.018-.949q-1.287-.96-1.936-2.728Q5 82.532 5 80.445q0-2.264.723-4.023q.722-1.76 2.115-2.7q1.06-.721 2.64-.722m37.33 0q2.076 0 3.123 1.197q1.053 1.197 1.105 3.194l-2.226.129q-.144-1.119-.618-1.604q-.466-.494-1.408-.494q-.97 0-1.52.525q-.353.335-.353.899q0 .514.33.88q.421.465 2.047.97t2.402 1.048q.782.534 1.22 1.473q.443.93.443 2.304q0 1.245-.526 2.333q-.527 1.088-1.49 1.623q-.964.523-2.402.523q-2.093 0-3.213-1.266q-1.122-1.274-1.34-3.707l2.168-.277q.194 1.433.789 2.105q.602.673 1.619.672q1.075 0 1.617-.591q.55-.604.551-1.405q0-.515-.234-.87q-.225-.367-.797-.634q-.391-.178-1.783-.632q-1.792-.584-2.514-1.434q-1.017-1.197-1.018-2.916a4.6 4.6 0 0 1 .475-2.066a3.36 3.36 0 0 1 1.377-1.475Q46.536 73 47.809 73m11.318 0q2.439 0 3.898 1.988q1.47 1.988 1.47 5.528q-.001 3.508-1.454 5.496q-1.452 1.977-3.883 1.978q-2.461 0-3.914-1.969q-1.453-1.977-1.453-5.437q0-2.216.504-3.719q.376-1.107 1.023-1.986q.656-.88 1.432-1.305Q57.78 73 59.127 73m-19.777.248h2.218v9.176q0 1.799-.24 2.767q-.324 1.266-1.174 2.038q-.85.76-2.242.761q-1.633 0-2.514-1.197q-.88-1.206-.888-3.53l2.1-.316q.037 1.245.279 1.76q.36.78 1.097.781q.746 0 1.055-.552q.309-.564.309-2.325zm26.898 0h2.166l4.516 9.68v-9.68H75v14.494h-2.234l-4.45-9.451v9.451h-2.068zm-7.098 2.254q-1.377 0-2.22 1.246q-.843 1.236-.842 3.736q0 2.463.865 3.739q.866 1.265 2.197 1.265q1.332 0 2.182-1.256q.859-1.265.86-3.787q0-2.491-.837-3.716q-.826-1.227-2.205-1.227m-38.752 1.502q1.785 0 2.815 1.553q1.03 1.542.986 4.736H18.9q.023 1.236.512 1.928q.489.683 1.219.683q.497 0 .836-.357q.338-.356.512-1.147l2.107.465q-.407 1.523-1.287 2.324q-.873.791-2.19.791q-2.084.001-3.086-1.789q-.79-1.433-.79-3.619q0-2.61 1.038-4.084q1.04-1.484 2.627-1.484m9.159 0q1.815 0 2.974 1.553q1.159 1.542 1.158 3.906q0 2.383-1.173 3.955q-1.168 1.562-2.944 1.562q-1.098 0-2.1-.652q-.992-.652-1.511-1.908q-.52-1.266-.52-3.076q0-1.384.52-2.68q.519-1.294 1.467-1.977a3.58 3.58 0 0 1 2.129-.683m-9.032 2.127q-.691 0-1.142.662q-.452.662-.445 1.799H22.1q-.023-1.206-.475-1.828q-.452-.633-1.1-.633m9.04.139q-.828 0-1.393.83t-.565 2.392t.565 2.393t1.392.832q.828-.001 1.385-.832q.565-.831.565-2.412q0-1.543-.565-2.373q-.557-.83-1.385-.83" color="currentColor" />
	<path fill="currentColor" d="M51.252 18v10.11h8.852a25.6 25.6 0 0 0-1.707-3.881c-1.985-3.606-4.507-5.78-7.145-6.229m-2.504.1c-2.469.613-4.813 2.735-6.682 6.13a25.6 25.6 0 0 0-1.706 3.881h8.388zm-5.769.678a22.55 22.55 0 0 0-12.005 9.333h6.739c.594-1.851 1.318-3.562 2.16-5.089c.897-1.63 1.942-3.067 3.106-4.244m14.729.231c1.074 1.134 2.044 2.488 2.883 4.013c.841 1.527 1.564 3.238 2.157 5.089h6.278a22.56 22.56 0 0 0-11.318-9.102M29.595 30.615a22.4 22.4 0 0 0-2.095 8.329h8.408c.097-2.941.48-5.744 1.103-8.329zm10.004 0c-.662 2.542-1.078 5.357-1.184 8.329h10.333v-8.329zm11.653 0v8.329h10.797c-.106-2.972-.523-5.787-1.184-8.329zm12.197 0a41.5 41.5 0 0 1 1.1 8.329H72.5a22.4 22.4 0 0 0-2.095-8.329ZM27.5 41.447a22.4 22.4 0 0 0 2.095 8.329h7.298c-.588-2.593-.934-5.396-.999-8.329Zm10.898 0c.07 2.962.452 5.774 1.075 8.329h9.275v-8.329zm12.854 0v8.329h9.738c.624-2.555 1.005-5.367 1.075-8.329zm13.31 0c-.065 2.932-.409 5.736-.995 8.329h6.838a22.4 22.4 0 0 0 2.095-8.329ZM30.973 52.28a22.57 22.57 0 0 0 11.33 9.105a20 20 0 0 1-2.432-3.514c-.917-1.666-1.697-3.546-2.319-5.591zm9.212 0c.532 1.61 1.165 3.084 1.88 4.383c1.753 3.182 3.923 5.246 6.222 5.997c.154.01.306.03.46.03V52.275Zm11.066 0v10.415c.357-.02.713-.04 1.065-.08c2.247-.789 4.364-2.834 6.08-5.951c.716-1.299 1.349-2.773 1.88-4.383zm11.656 0c-.62 2.045-1.4 3.926-2.317 5.591a20.4 20.4 0 0 1-2.197 3.243a22.57 22.57 0 0 0 10.632-8.834z" color="currentColor" />
</svg>
