<svg xmlns="http://www.w3.org/2000/svg" viewBox="0 0 512 512">
	<path fill="currentColor" d="M450.392 268.216c2.128 1.475 4.178 2.3 6.484 3.554c1.87 1.017 3.773 1.97 5.649 2.973c1.462.781 4.171 2.425 2.529 4.345c-1.067 1.251-3.65 1.055-5.163 1.267c-2.399.333-5.349.206-7.74 0c-2.93-.254-5.992.44-8.974.44c-2.152 0-4.32.093-6.449.087c-.767-.002-1.734.176-2.258-.5c-.545-.702-.163-1.482.263-2.066c.511-.696.992-1.625 1.607-2.169c.55-.484 1.273-.82 1.825-1.246c1.344-1.036 1.811-2.132.62-3.47c-1.184-1.333-2.054-2.276-2.115-4.162c-.077-2.409 1.453-2.904 3.503-3.43c3.07-.787 2.81-.26 5.381 1.21c1.231.705 4.256 2.763 4.838 3.167m-391.838.965c-2.166 1.418-4.237 2.19-6.576 3.382c-1.895.968-3.823 1.87-5.724 2.825c-1.483.742-4.234 2.313-2.641 4.277c1.033 1.279 3.62 1.15 5.128 1.401c2.388.396 5.34.346 7.737.204c2.935-.179 5.978.597 8.958.673c2.152.059 4.316.208 6.445.257c.766.018 1.728.222 2.27-.441c.564-.686.202-1.476-.209-2.07c-.492-.71-.949-1.651-1.549-2.211c-.538-.5-1.25-.853-1.791-1.293c-1.317-1.072-1.756-2.18-.53-3.486c1.22-1.302 2.114-2.221 2.224-4.105c.14-2.406-1.303-3.343-3.413-3.522c-2.714-.23-2.609.327-5.304 1.333c-1.33.496-4.432 2.387-5.025 2.776m451.022 17.014c-16.683 19.24-48.328 9.606-100.566 34.597c-69.325 33.167-73.89 52.895-153.634 53.459c-82.488.584-84.365-22.069-157.445-54.632c-57.686-25.703-89.631-14.17-96.46-34.303c-9.305-26.434 27.8-50.805 48.083-65.09c92.024-64.802 132.11-82.259 203.869-82.191c77.032-4.397 151.521 40.851 207.19 82.192c19.829 14.725 61.893 42.91 48.963 65.968M258.599 269.69l-.008 16.347c17.096-1.496 30.743-15.325 32.38-32.767l-16.36.032c-1.384 8.431-7.852 15.066-16.012 16.388m9.442-16.374l-9.435.018l-.004 9.8c4.622-1.169 8.253-4.966 9.439-9.818m.1-6.415c-1.09-5.014-4.8-8.955-9.527-10.155l-.004 10.174zm-48.105.095l16.537-.033c1.223-8.462 7.553-15.2 15.63-16.708l.008-16.795c-17.234 1.628-30.88 15.813-32.175 33.536m32.151 15.989l.005-9.638l-8.976.018c1.157 4.666 4.584 8.326 8.971 9.62m-15.545-9.607l-16.56.033c1.687 17.282 15.173 30.996 32.094 32.611l.008-16.405c-7.92-1.487-14.159-8.001-15.542-16.24m15.553-6.446l.005-10.046c-4.534 1.333-8.07 5.182-9.114 10.064zm38.809-.077c-1.362-17.728-15.091-31.877-32.378-33.406l-.008 16.74c8.252 1.345 14.768 8.126 16.04 16.699zm-71.367 86.084c-34.085-13.75-58.083-46.557-58.083-84.859c0-20.928 7.177-40.21 19.234-55.648c-25.098 10.645-58.524 30.852-113.737 69.212c-8.738 6.07-35.162 13.14-28.931 18.98c4.69 4.399 29.905 1.173 48.67 7.037c66.902 20.907 96.914 38.248 132.847 45.278M445.66 261.86c-51.504-36.986-86.776-57.9-115.565-69.267c11.981 15.412 19.104 34.632 19.104 55.487c0 37.031-22.436 68.917-54.727 83.42c43.165-9.94 86.137-32.789 127.146-44.132c28.016-7.751 38.995-1.466 51.31-7.623c4.965-2.483-20.128-12.76-27.268-17.885" />
</svg>
