<svg xmlns="http://www.w3.org/2000/svg" width="1em" height="1em" viewBox="0 0 24 24">
	<path d="M0 0h24v24H0z" fill="none" />
	<path fill="currentColor" d="m14.975 3.019l.96-1.732a.193.193 0 0 0-.338-.187l-.97 1.75a6.54 6.54 0 0 0-5.253 0l-.97-1.75a.193.193 0 0 0-.34.187l.96 1.732a5.55 5.55 0 0 0-3.092 4.876h12.137a5.55 5.55 0 0 0-3.094-4.876M9.2 5.674a.507.507 0 1 1 .507-.506a.507.507 0 0 1-.507.506m5.602 0a.507.507 0 1 1 .507-.506a.507.507 0 0 1-.507.506M5.93 17.171A1.467 1.467 0 0 0 7.4 18.64h.973v3a1.36 1.36 0 1 0 2.721 0v-3h1.814v3a1.36 1.36 0 1 0 2.72 0v-3h.974a1.467 1.467 0 0 0 1.468-1.468V8.375H5.93Zm-1.867-9.03a1.36 1.36 0 0 0-1.36 1.361v5.669a1.36 1.36 0 1 0 2.72 0V9.502a1.36 1.36 0 0 0-1.36-1.36m15.872 0a1.36 1.36 0 0 0-1.36 1.361v5.669a1.36 1.36 0 1 0 2.72 0v-5.67a1.36 1.36 0 0 0-1.36-1.36" />
</svg>
