<svg xmlns="http://www.w3.org/2000/svg" viewBox="0 0 32 32">
	<path fill="currentColor" d="M23.438 16.266c-1.016-.922-2.297-1.667-3.604-2.411c-.594-.328-2.417-1.755-1.786-3.781l-1.135-.479c1.786-2.771 4.115-5.51 6.969-8.073c-2.292.771-4.318 1.964-5.839 4.078c.896-1.875 2.354-3.724 3.964-5.599c-2.203 1.578-4.109 3.365-5.302 5.75l.833-3.339c-1.193 2.146-2.026 4.323-2.354 6.495l-1.755-.714l-.297.24c1.547 2.771.745 4.229-.031 4.74c-1.547 1.042-3.781 2.38-4.917 3.542c-2.146 2.208-2.771 4.292-2.563 7.063c.208 3.547 2.802 6.495 6.229 7.656c1.521.51 2.917.568 4.469.568c2.5 0 5.063-.656 6.943-2.234a8.73 8.73 0 0 0 3.156-6.703a9.17 9.17 0 0 0-2.979-6.797zm-4.74 11.833c-.12.536-.505 1.193-.979 1.786c.177-.328.328-.656.417-1.016c.745-2.651 1.073-3.87.714-6.792c-.057-.297-.177-1.25-.625-2.292c-.625-1.583-1.578-3.073-1.698-3.401c-.208-.505-.505-2.651-.536-4.109c.031 1.25.12 3.542.448 4.438c.089.302.953 1.641 1.578 3.276c.417 1.135.505 2.177.594 2.474c.302 1.344-.057 3.609-.531 5.75c-.151.776-.568 1.672-1.104 2.354c.297-.417.536-.953.714-1.578c.359-1.25.505-2.859.474-3.875c-.026-.594-.297-1.875-.745-3.036c-.266-.625-.656-1.281-.922-1.729c-.297-.448-.297-1.427-.417-2.563c.026 1.224-.089 1.849.208 2.714c.177.505.833 1.219 1.01 1.906c.271.922.536 1.938.51 2.563c0 .714-.031 2.026-.359 3.458c-.208 1.068-.688 1.995-1.458 2.589a3 3 0 0 0 .594-1.25c.12-.625.151-1.224.208-1.969a8 8 0 0 0-.146-2.292c-.24-1.073-.625-2.146-.807-2.891c.031.833.359 1.875.51 2.979c.115.807.057 1.609.026 2.323c-.026.833-.297 2.297-.656 3.01c-.359-.151-.474-.359-.714-.656c-.302-.385-.479-.802-.656-1.281a7 7 0 0 1-.391-1.219a4.1 4.1 0 0 1 .745-2.953c.625-.896.75-.953.953-1.995c-.297.922-.505 1.01-1.161 1.786c-.745.865-.859 2.115-.859 3.13c0 .417.177.896.328 1.344c.177.474.354.948.594 1.307c.177.297.417.505.625.656c-.776-.208-1.578-.505-2.083-.922c-1.25-1.078-2.354-2.891-2.505-4.5c-.12-1.313 1.073-3.219 2.771-4.172c1.432-.833 1.76-1.76 2.057-3.281c-.417 1.313-.833 2.448-2.208 3.13c-1.964 1.073-2.979 2.802-2.885 4.469c.146 2.115.979 3.578 2.682 4.74c.385.271.922.536 1.49.745c-2.12-.505-2.385-.802-3.099-1.635c0-.063-.182-.182-.182-.208c-.953-1.073-2.141-2.922-2.563-4.62c-.146-.594-.297-1.219-.115-1.818c.771-2.802 2.469-3.875 4.167-5.031c.422-.302.839-.568 1.224-.865c.953-.75 1.193-2.682 1.401-3.786c-.385 1.344-.807 3.01-1.552 3.547c-.385.297-.865.536-1.25.802c-1.755 1.193-3.516 2.328-4.318 5.214c-.182.75-.063 1.286.115 2c.448 1.755 1.641 3.661 2.656 4.797l.177.177a4.3 4.3 0 0 0 1.698 1.161a8 8 0 0 1-1.729-.625c-2.771-1.339-4.615-4.229-4.734-6.583c-.24-4.797 2.057-6.198 4.198-7.958c1.193-.979 2.865-1.458 3.818-3.214c.177-.391.297-1.224.057-2.12c-.089-.297-.536-1.37-.714-1.609l2.651 1.167c-.057 1.25-.089 2.26.146 3.188c.271 1.01 1.583 2.469 2.12 4.172c1.042 3.214.776 7.411.026 10.693z" />
</svg>
