<svg xmlns="http://www.w3.org/2000/svg" viewBox="0 0 24 24">
	<path fill="currentColor" d="M18.75 12a6.75 6.75 0 1 0-3.375 5.846a.75.75 0 0 1 .75 1.299A8.251 8.251 0 1 1 20.25 12a.75.75 0 0 1-1.5 0" />
	<path fill="currentColor" d="M15.75 13a1.5 1.5 0 0 0 3 0h1.5a3 3 0 0 1-6 0z" />
	<path fill="currentColor" d="M14.25 12a2.25 2.25 0 1 0-4.5 0a2.25 2.25 0 0 0 4.5 0m1.5 0a3.75 3.75 0 1 1-7.5 0a3.75 3.75 0 0 1 7.5 0m4.5-.75V13h-1.5v-1.75z" />
	<path fill="currentColor" d="M14.25 14V9a.75.75 0 0 1 1.5 0v5a.75.75 0 0 1-1.5 0" />
</svg>
