<svg xmlns="http://www.w3.org/2000/svg" viewBox="0 0 24 24">
	<path fill="currentColor" d="m23.348 11.911l-2.241-1.091v-.65L24 11.621v.593l-2.893 1.438v-.636zm-5.397 1.841h-.961v-5.31h.961v3.116h.102l1.28-1.481l.723.31l-1.23 1.316l1.453 1.809l-.888.311l-1.44-1.996zm-2.577-.002v-2.068a3 3 0 0 0-.026-.42a.8.8 0 0 0-.09-.26q-.168-.303-.59-.304a.9.9 0 0 0-.461.113a.67.67 0 0 0-.286.33a1 1 0 0 0-.07.263q-.019.195-.017.395v1.95h-.961v-3.614h.961l.002.485q.277-.302.566-.437q.29-.134.673-.134q.43 0 .721.177a1.02 1.02 0 0 1 .475.665a2 2 0 0 1 .054.448q.003.15.004.358v2.053zm-4.115.002l-.002-.485a1.8 1.8 0 0 1-.565.437a1.6 1.6 0 0 1-.674.135q-.427 0-.72-.17a.97.97 0 0 1-.425-.504a1 1 0 0 1-.054-.167a2 2 0 0 1-.033-.199a2 2 0 0 1-.017-.258l-.005-.355V10.13h.956v2.07q-.004.212.026.42q.023.139.09.26q.168.306.59.306q.54 0 .74-.449q.053-.123.074-.257q.025-.201.022-.403v-1.95h.955v3.624zM7.184 8.44h.955v5.31h-.955zM5.759 11.9q0-.594-.24-.937a.76.76 0 0 0-.657-.345a.8.8 0 0 0-.693.366q-.257.367-.253.99q0 .607.25.957a.8.8 0 0 0 .69.347a.7.7 0 0 0 .433-.135a1 1 0 0 0 .277-.34c.071-.14.121-.292.147-.448q.043-.224.046-.455m1.01-.036c.003.266-.04.532-.129.786q-.123.347-.364.626c-.31.361-.764.567-1.24.563a1.7 1.7 0 0 1-.313-.028a1 1 0 0 1-.275-.098a1.3 1.3 0 0 1-.257-.178a2.4 2.4 0 0 1-.265-.268v2.293h-.929v-5.425h.93l.004.529q.254-.318.55-.468q.295-.15.688-.147a1.5 1.5 0 0 1 1.156.507c.148.166.259.361.33.571c.08.236.12.485.115.737m-4.21.89a.95.95 0 0 1-.102.441a1 1 0 0 1-.282.345q-.196.15-.43.22a1.8 1.8 0 0 1-.546.08a2 2 0 0 1-.637-.097a2 2 0 0 1-.563-.32l.312-.505q.224.189.405.275q.174.086.368.087a.56.56 0 0 0 .373-.12a.4.4 0 0 0 .14-.322a.48.48 0 0 0-.12-.318a1.3 1.3 0 0 0-.187-.173a9 9 0 0 0-.308-.232a7 7 0 0 1-.281-.21a2 2 0 0 1-.252-.232a1 1 0 0 1-.18-.275a.8.8 0 0 1-.069-.347a.9.9 0 0 1 .094-.409a.9.9 0 0 1 .255-.314a1.2 1.2 0 0 1 .39-.203q.242-.075.494-.072q.278 0 .545.076q.262.075.488.219l-.282.454a1.05 1.05 0 0 0-.608-.201a.5.5 0 0 0-.323.102a.3.3 0 0 0-.126.253c0 .098.041.193.113.26q.112.117.385.325q.277.203.457.355c.104.085.202.182.286.286q.099.122.145.273a.8.8 0 0 1 .046.299" />
</svg>
