<svg xmlns="http://www.w3.org/2000/svg" width="1em" height="1em" viewBox="0 0 24 24">
	<path d="M0 0h24v24H0z" fill="none" />
	<g fill="none" stroke="currentColor" stroke-linejoin="round" stroke-width="1.5">
		<path stroke-linecap="round" d="M3.55 6.937a5.378 5.378 0 0 1 7.837 2.619h9.657L23 11.51l-1.955 1.956h-1.467l-1.467 1.466l-1.467-1.466h-.977L14.2 14.933l-1.467-1.466h-1.346a5.378 5.378 0 1 1-7.838-6.53" />
		<path stroke-linecap="round" d="M5.404 12.98a1.467 1.467 0 1 0 0-2.934a1.467 1.467 0 0 0 0 2.934" />
		<path d="M8.088 1.75a.75.75 0 1 0 1.5 0a.75.75 0 0 0-1.5 0ZM5.404 22.283a.75.75 0 1 0 1.5 0a.75.75 0 0 0-1.5 0ZM21.533 3.705a.75.75 0 1 0 1.5 0a.75.75 0 0 0-1.5 0Zm0 15.645a.75.75 0 1 0 1.5 0a.75.75 0 0 0-1.5 0Z" />
		<path stroke-linecap="round" d="M17.378 7.6V4.665c0-.54.438-.978.978-.978h.977M12 1.733h.977c.54 0 .978.438.978.978v4.89m2.445 8.31v2.445c0 .54.438.977.978.977h1.955m-9.777 2.934h1.956c.54 0 .977-.438.977-.978v-4.89" />
	</g>
</svg>
