<svg xmlns="http://www.w3.org/2000/svg" viewBox="0 0 24 24"><mask id="ft-js"><path d="M13 9V3.5L18.5 9M6 2c-1.11 0-2 .89-2 2v16a2 2 0 0 0 2 2h12a2 2 0 0 0 2-2V8l-6-6z" fill="white"/><g fill="black"><rect x="8" y="12.3" width="1.14" height="1.14"/><rect x="9.14" y="12.3" width="1.14" height="1.14"/><rect x="10.29" y="12.3" width="1.14" height="1.14"/><rect x="9.14" y="13.44" width="1.14" height="1.14"/><rect x="9.14" y="14.59" width="1.14" height="1.14"/><rect x="9.14" y="15.73" width="1.14" height="1.14"/><rect x="9.14" y="16.87" width="1.14" height="1.14"/><rect x="5.71" y="18.01" width="1.14" height="1.14"/><rect x="9.14" y="18.01" width="1.14" height="1.14"/><rect x="6.86" y="19.16" width="1.14" height="1.14"/><rect x="8" y="19.16" width="1.14" height="1.14"/><rect x="13.71" y="12.3" width="1.14" height="1.14"/><rect x="14.86" y="12.3" width="1.14" height="1.14"/><rect x="16" y="12.3" width="1.14" height="1.14"/><rect x="17.14" y="12.3" width="1.14" height="1.14"/><rect x="12.57" y="13.44" width="1.14" height="1.14"/><rect x="12.57" y="14.59" width="1.14" height="1.14"/><rect x="13.71" y="15.73" width="1.14" height="1.14"/><rect x="14.86" y="15.73" width="1.14" height="1.14"/><rect x="16" y="15.73" width="1.14" height="1.14"/><rect x="17.14" y="16.87" width="1.14" height="1.14"/><rect x="17.14" y="18.01" width="1.14" height="1.14"/><rect x="12.57" y="19.16" width="1.14" height="1.14"/><rect x="13.71" y="19.16" width="1.14" height="1.14"/><rect x="14.86" y="19.16" width="1.14" height="1.14"/><rect x="16" y="19.16" width="1.14" height="1.14"/></g></mask><path d="M13 9V3.5L18.5 9M6 2c-1.11 0-2 .89-2 2v16a2 2 0 0 0 2 2h12a2 2 0 0 0 2-2V8l-6-6z" fill="currentColor" mask="url(#ft-js)"/></svg>