<svg xmlns="http://www.w3.org/2000/svg" viewBox="0 0 24 24"><mask id="ft-csv"><path d="M13 9V3.5L18.5 9M6 2c-1.11 0-2 .89-2 2v16a2 2 0 0 0 2 2h12a2 2 0 0 0 2-2V8l-6-6z" fill="white"/><g fill="black"><rect x="6.26" y="13.62" width="0.76" height="0.76"/><rect x="7.03" y="13.62" width="0.76" height="0.76"/><rect x="7.79" y="13.62" width="0.76" height="0.76"/><rect x="5.5" y="14.39" width="0.76" height="0.76"/><rect x="8.56" y="14.39" width="0.76" height="0.76"/><rect x="5.5" y="15.15" width="0.76" height="0.76"/><rect x="5.5" y="15.92" width="0.76" height="0.76"/><rect x="5.5" y="16.68" width="0.76" height="0.76"/><rect x="5.5" y="17.45" width="0.76" height="0.76"/><rect x="8.56" y="17.45" width="0.76" height="0.76"/><rect x="6.26" y="18.21" width="0.76" height="0.76"/><rect x="7.03" y="18.21" width="0.76" height="0.76"/><rect x="7.79" y="18.21" width="0.76" height="0.76"/><rect x="10.85" y="13.62" width="0.76" height="0.76"/><rect x="11.62" y="13.62" width="0.76" height="0.76"/><rect x="12.38" y="13.62" width="0.76" height="0.76"/><rect x="13.15" y="13.62" width="0.76" height="0.76"/><rect x="10.09" y="14.39" width="0.76" height="0.76"/><rect x="10.09" y="15.15" width="0.76" height="0.76"/><rect x="10.85" y="15.92" width="0.76" height="0.76"/><rect x="11.62" y="15.92" width="0.76" height="0.76"/><rect x="12.38" y="15.92" width="0.76" height="0.76"/><rect x="13.15" y="16.68" width="0.76" height="0.76"/><rect x="13.15" y="17.45" width="0.76" height="0.76"/><rect x="10.09" y="18.21" width="0.76" height="0.76"/><rect x="10.85" y="18.21" width="0.76" height="0.76"/><rect x="11.62" y="18.21" width="0.76" height="0.76"/><rect x="12.38" y="18.21" width="0.76" height="0.76"/><rect x="14.68" y="13.62" width="0.76" height="0.76"/><rect x="17.74" y="13.62" width="0.76" height="0.76"/><rect x="14.68" y="14.39" width="0.76" height="0.76"/><rect x="17.74" y="14.39" width="0.76" height="0.76"/><rect x="14.68" y="15.15" width="0.76" height="0.76"/><rect x="17.74" y="15.15" width="0.76" height="0.76"/><rect x="14.68" y="15.92" width="0.76" height="0.76"/><rect x="17.74" y="15.92" width="0.76" height="0.76"/><rect x="15.44" y="16.68" width="0.76" height="0.76"/><rect x="16.97" y="16.68" width="0.76" height="0.76"/><rect x="15.44" y="17.45" width="0.76" height="0.76"/><rect x="16.97" y="17.45" width="0.76" height="0.76"/><rect x="16.21" y="18.21" width="0.76" height="0.76"/></g></mask><path d="M13 9V3.5L18.5 9M6 2c-1.11 0-2 .89-2 2v16a2 2 0 0 0 2 2h12a2 2 0 0 0 2-2V8l-6-6z" fill="currentColor" mask="url(#ft-csv)"/></svg>