<svg xmlns="http://www.w3.org/2000/svg" viewBox="0 0 24 24"><mask id="ft-pptx"><path d="M13 9V3.5L18.5 9M6 2c-1.11 0-2 .89-2 2v16a2 2 0 0 0 2 2h12a2 2 0 0 0 2-2V8l-6-6z" fill="white"/><g fill="black"><rect x="5.5" y="14.32" width="0.57" height="0.57"/><rect x="6.07" y="14.32" width="0.57" height="0.57"/><rect x="6.63" y="14.32" width="0.57" height="0.57"/><rect x="7.2" y="14.32" width="0.57" height="0.57"/><rect x="5.5" y="14.89" width="0.57" height="0.57"/><rect x="7.76" y="14.89" width="0.57" height="0.57"/><rect x="5.5" y="15.45" width="0.57" height="0.57"/><rect x="7.76" y="15.45" width="0.57" height="0.57"/><rect x="5.5" y="16.02" width="0.57" height="0.57"/><rect x="6.07" y="16.02" width="0.57" height="0.57"/><rect x="6.63" y="16.02" width="0.57" height="0.57"/><rect x="7.2" y="16.02" width="0.57" height="0.57"/><rect x="5.5" y="16.58" width="0.57" height="0.57"/><rect x="5.5" y="17.15" width="0.57" height="0.57"/><rect x="5.5" y="17.71" width="0.57" height="0.57"/><rect x="8.89" y="14.32" width="0.57" height="0.57"/><rect x="9.46" y="14.32" width="0.57" height="0.57"/><rect x="10.02" y="14.32" width="0.57" height="0.57"/><rect x="10.59" y="14.32" width="0.57" height="0.57"/><rect x="8.89" y="14.89" width="0.57" height="0.57"/><rect x="11.15" y="14.89" width="0.57" height="0.57"/><rect x="8.89" y="15.45" width="0.57" height="0.57"/><rect x="11.15" y="15.45" width="0.57" height="0.57"/><rect x="8.89" y="16.02" width="0.57" height="0.57"/><rect x="9.46" y="16.02" width="0.57" height="0.57"/><rect x="10.02" y="16.02" width="0.57" height="0.57"/><rect x="10.59" y="16.02" width="0.57" height="0.57"/><rect x="8.89" y="16.58" width="0.57" height="0.57"/><rect x="8.89" y="17.15" width="0.57" height="0.57"/><rect x="8.89" y="17.71" width="0.57" height="0.57"/><rect x="12.28" y="14.32" width="0.57" height="0.57"/><rect x="12.85" y="14.32" width="0.57" height="0.57"/><rect x="13.41" y="14.32" width="0.57" height="0.57"/><rect x="13.98" y="14.32" width="0.57" height="0.57"/><rect x="14.54" y="14.32" width="0.57" height="0.57"/><rect x="13.41" y="14.89" width="0.57" height="0.57"/><rect x="13.41" y="15.45" width="0.57" height="0.57"/><rect x="13.41" y="16.02" width="0.57" height="0.57"/><rect x="13.41" y="16.58" width="0.57" height="0.57"/><rect x="13.41" y="17.15" width="0.57" height="0.57"/><rect x="13.41" y="17.71" width="0.57" height="0.57"/><rect x="15.67" y="14.32" width="0.57" height="0.57"/><rect x="17.93" y="14.32" width="0.57" height="0.57"/><rect x="15.67" y="14.89" width="0.57" height="0.57"/><rect x="17.93" y="14.89" width="0.57" height="0.57"/><rect x="16.24" y="15.45" width="0.57" height="0.57"/><rect x="17.37" y="15.45" width="0.57" height="0.57"/><rect x="16.8" y="16.02" width="0.57" height="0.57"/><rect x="16.24" y="16.58" width="0.57" height="0.57"/><rect x="17.37" y="16.58" width="0.57" height="0.57"/><rect x="15.67" y="17.15" width="0.57" height="0.57"/><rect x="17.93" y="17.15" width="0.57" height="0.57"/><rect x="15.67" y="17.71" width="0.57" height="0.57"/><rect x="17.93" y="17.71" width="0.57" height="0.57"/></g></mask><path d="M13 9V3.5L18.5 9M6 2c-1.11 0-2 .89-2 2v16a2 2 0 0 0 2 2h12a2 2 0 0 0 2-2V8l-6-6z" fill="currentColor" mask="url(#ft-pptx)"/></svg>