<?xml version="1.0" encoding="UTF-8" standalone="no"?>
<!-- Created with Inkscape (http://www.inkscape.org/) -->

<svg
   version="1.1"
   id="svg1"
   width="532.81531"
   height="534.7428"
   viewBox="0 0 532.81531 534.7428"
   xmlns="http://www.w3.org/2000/svg"
   xmlns:svg="http://www.w3.org/2000/svg">
  <defs
     id="defs1" />
  <g
     id="g1"
     transform="translate(-14.281367,-11.089229)">
    <g
       id="g45"
       transform="translate(9.5,8.02932)">
      <path
         style="fill:#f4f4f3"
         d="M 249.38637,536.93615 C 227.55713,535.2544 200.78981,529.35476 179.36005,521.50203 163.8368,515.81368 138.67273,503.00356 124.79009,493.72244 57.75846,448.90898 14.874624,378.66099 5.9191512,299 4.3942352,285.43552 4.403969,254.43265 5.9373612,241 12.977057,179.33164 39.616457,124.15983 83.438307,80.49085 126.48974,37.589603 177.88789,12.462872 239,4.442257 c 17.99975,-2.3623645 58.56124,-1.5798407 75.5,1.4565674 27.59621,4.9468426 48.39682,11.6148506 72.5,23.2411746 54.25941,26.172376 96.98873,68.516019 123.44087,122.326691 12.69557,25.82614 21.31371,53.52173 25.21545,81.03331 2.5666,18.09741 2.59192,59.03032 0.0467,75.5 -9.28703,60.09465 -35.03078,110.86661 -77.57815,153 -21.71569,21.50441 -42.4575,36.25576 -69.62487,49.51648 -44.14438,21.54741 -89.80293,30.21862 -139.11363,26.41967 z"
         id="path51" />
      <path
         style="fill:#e5d4d3"
         d="M 253.8279,522.97244 C 177.49051,517.45571 107.04962,475.28933 63.937211,409.30263 54.91487,395.49328 42.310006,369.86138 37.068891,354.66611 13.260662,285.64023 18.167071,213.47973 51.054588,148.97297 59.300756,132.79864 71.672881,114 74.07168,114 c 2.389886,0 2.548287,1.21914 3.897884,30 4.171079,88.95046 13.900125,174.27954 25.654036,225 11.74817,50.69569 25.50203,81.43354 45.50531,101.69769 8.57762,8.68948 15.55512,13.53186 25.8661,17.95103 12.80645,5.48871 20.92584,6.7037 42.00499,6.28563 40.74393,-0.80807 46.94273,-0.59675 54,1.84091 7.67197,2.64999 16.82314,9.217 22.75,16.32574 5.39248,6.46778 5.50411,8.53854 0.5,9.27538 -7.48755,1.10251 -29.02037,1.42003 -40.4221,0.59606 z m 87.12438,-20.55145 C 334.35935,491.50607 326.09551,481.13887 317.89896,473.5 296.56576,453.6183 273.31984,446.62348 236.40575,448.97827 204.64475,451.00433 196.01087,450.01672 186,443.21241 158.58576,424.57918 138.97314,351.60141 128.02777,227.5 c -2.30964,-26.18728 -5.00621,-63.92989 -5.0191,-70.25 -0.01,-4.86316 1.87783,-5.70721 4.47309,-2 15.27133,21.81441 28.73398,36.41726 44.8585,48.65775 27.93866,21.20886 54.50278,33.36293 111.65974,51.08849 58.53684,18.15348 75.50738,25.32818 92.62842,39.16088 30.39694,24.55877 38.16762,68.03814 24.81417,138.84288 -2.80124,14.85317 -9.09925,40.88611 -13.00448,53.75427 l -2.50501,8.25427 -6.71655,3.36859 C 370.7954,502.60064 349.83724,511 347.71988,511 c -0.92161,0 -3.75572,-3.59268 -6.7676,-8.57901 z m 112.67598,-64.21346 c -0.26937,-0.43585 0.35103,-6.28279 1.37868,-12.99318 4.71083,-30.76115 5.15573,-65.39069 1.13361,-88.23595 C 447.15266,285.92796 418.85612,251.18581 367.57242,228.23553 354.68848,222.46976 330.88883,214.23885 294.5,202.96405 265.81507,194.07624 250.92822,188.55945 235.21304,180.99339 185.95601,157.27862 160.28354,123.3835 147.10503,64.66518 145.39726,57.05603 144,50.222195 144,49.478881 c 0,-2.612896 25.84546,-15.776375 44.47235,-22.65043 12.42001,-4.583471 32.67669,-9.63064 48.02765,-11.966604 18.34826,-2.792062 49.30043,-3.008182 67,-0.467819 54.41703,7.810305 103.19261,32.144724 141.5,70.595168 38.53703,38.680934 62.45311,85.586314 72.20295,141.607934 1.97309,11.33717 2.24558,16.36121 2.24558,41.40287 0,30.72836 -1.11673,40.9937 -6.97271,64.0954 -8.02212,31.64705 -24.28096,65.56419 -43.96491,91.71399 -10.3802,13.78992 -13.43315,16.74349 -14.88265,14.39814 z"
         id="path50" />
      <path
         style="fill:#cea2a1"
         d="M 252.5,521.99807 C 193.90664,517.04674 140.10676,492.0092 98.362866,450.2653 59.299717,411.20216 34.490198,361.68288 25.83439,305.5 23.230599,288.59938 22.718992,252.51596 24.863168,237 c 4.695595,-33.97888 12.860977,-60.19901 27.688055,-88.91002 6.801314,-13.16999 19.079395,-32.23909 21.161895,-32.86655 1.785994,-0.53812 1.978611,1.31836 3.76384,36.27657 0.898787,17.6 2.515717,43.25 3.593177,57 13.650473,174.20046 39.430755,254.62715 89.429865,278.99414 15.71914,7.6607 30.5987,9.94351 55.08813,8.45156 40.07489,-2.44144 48.82378,-0.49573 63.66187,14.15811 7.59921,7.50485 9.11224,10.15947 6.38663,11.20539 -2.681,1.02879 -33.3232,1.51814 -43.13663,0.68887 z M 345.58449,507.8313 C 344.68714,506.54908 341.3218,501.45 338.10594,496.5 313.9374,459.29869 284.48057,445.10714 237.5,448.03065 c -31.91058,1.98573 -41.60564,0.90762 -51.27387,-5.70176 C 164.01299,427.14356 146.28419,372.61423 135.07471,285 131.0763,253.74804 126.47968,202.80771 124.4044,166.75 c -0.81925,-14.23426 -0.0192,-14.83837 6.5956,-4.98021 17.83605,26.58147 43.25134,48.25764 76.50842,65.25246 18.59692,9.50328 39.33996,17.34123 76.49158,28.90305 39.10238,12.1689 52.26549,16.79553 65.62942,23.0677 19.88639,9.33339 33.47738,20.13943 42.41015,33.71983 17.65028,26.83352 19.45023,71.24556 5.46274,134.78717 -3.79276,17.22954 -10.04984,40.78504 -11.80584,44.44444 -1.50953,3.1458 -6.11399,5.74321 -21.19647,11.95713 -16.13088,6.64585 -16.90248,6.80616 -18.91551,3.92973 z M 454.8334,436.50007 c -0.27496,-0.27496 0.29553,-6.01246 1.26775,-12.75 5.47057,-37.91146 5.2354,-67.86134 -0.74367,-94.71025 C 445.21962,283.51599 419.91985,252.45556 375.5,230.9991 355.85684,221.51072 353.94315,220.83341 285,198.96863 238.18256,184.12084 213.59231,171.25273 191.846,150.22099 179.63792,138.41406 171.47645,126.98734 163.47554,110.5 156.22673,95.562522 152.51249,84.439125 147.96886,64.060658 l -3.21943,-14.439342 2.37529,-1.964013 c 4.64454,-3.84036 34.58878,-17.611203 47.97368,-22.062274 25.13687,-8.359117 47.43541,-11.89671 75.4016,-11.96222 26.65436,-0.06244 44.12868,2.32717 68.84856,9.41502 56.76078,16.274826 109.16899,56.377924 141.12798,107.992041 16.50965,26.66327 29.28674,59.91834 34.94823,90.96013 5.70258,31.26712 4.92325,70.46038 -2.02818,102 -8.07258,36.62642 -26.66917,75.72649 -49.82069,104.75 -6.19983,7.7723 -7.53588,8.95669 -8.7425,7.75007 z"
         id="path49" />
      <path
         style="fill:#b66f6e"
         d="M 255,521.34452 C 208.36738,516.87572 173.15576,504.86655 137.6884,481.33455 99.788475,456.1886 71.161457,423.55934 50.976691,382.5 36.138752,352.31704 28.98343,327.77177 25.469103,295 20.208476,245.94364 28.899577,197.74188 51.05924,153.07441 c 8.03786,-16.202 21.343489,-37.56158 22.827202,-36.64459 0.470273,0.29064 1.164248,6.95033 1.542167,14.79931 C 80.610711,238.85585 90.236516,321.91442 103.96938,377.5 121.23355,447.37905 144.6504,481.5889 183.5,493.68689 l 9,2.80265 37,0.0153 c 40.75169,0.0169 40.31597,-0.0399 50.67971,6.61045 5.55028,3.5616 16.0876,14.57613 15.53905,16.24277 -0.20671,0.62805 -3.26549,1.42681 -6.7973,1.77503 -6.69527,0.66011 -27.86255,0.79203 -33.92146,0.2114 z m 89.22538,-16.97435 C 326.88292,474.90911 305.6326,457.15911 278.90773,449.81156 270.83438,447.59193 269.04838,447.5 234,447.5 c -41.99479,0 -41.20571,0.14747 -51.54795,-9.63379 C 157.08654,413.87656 139.4843,341.88526 129.06043,219.5 c -2.53841,-29.80316 -4.35769,-58.36548 -3.9122,-61.42082 0.29796,-2.04356 1.57059,-0.74271 8.31964,8.5041 9.66036,13.23557 26.66904,30.46742 39.53213,40.05083 25.45236,18.96279 50.7013,30.88259 96,45.32071 71.41242,22.7614 83.85749,27.60527 100.52116,39.12486 26.9566,18.63508 37.67581,45.60617 36.13477,90.92032 -0.86402,25.40635 -4.44478,47.96907 -13.18486,83.07906 -6.966,27.98329 -6.90739,27.85055 -13.97107,31.63837 C 371.4467,500.49967 350.66422,509 348.47031,509 c -0.83575,0 -2.74597,-2.08342 -4.24493,-4.62983 z m 111.69067,-68.78745 c -0.32041,-0.32042 0.20978,-6.09511 1.17822,-12.83265 13.32086,-92.675 -8.80891,-151.67915 -70.02699,-186.71157 C 369.00311,225.70117 352.51264,219.35799 305.20547,204.54973 265.35147,192.07449 252.13111,187.24874 235,178.92308 193.59391,158.79984 169.31494,131.12358 155.0502,87.786112 152.19599,79.114792 146,53.569951 146,50.473936 146,47.37528 172.56086,34.252646 193.18207,27.163211 206.75325,22.497527 222.38983,18.717748 238,16.329516 c 15.90107,-2.432735 50.98738,-2.442492 67,-0.01863 41.62458,6.300793 79.9107,22.360699 113.3405,47.543018 12.87769,9.700627 32.76225,28.967388 42.96344,41.628606 57.01361,70.76246 72.76192,166.25872 41.5438,251.91764 -7.83288,21.49254 -21.58299,46.82913 -35.11404,64.70281 -7.94704,10.49753 -11.14833,14.14908 -11.81765,13.47976 z"
         id="path48" />
      <path
         style="fill:#a74f4e"
         d="M 242.25778,519.42357 C 128.16261,505.60143 38.217559,411.95029 25.926443,294.17853 24.197523,277.61226 25.236613,241.78941 27.889551,226.5 33.044935,196.7885 41.324216,172.17534 54.601245,147.08981 60.820928,135.33839 71.787922,118 73.001328,118 c 0.917823,0 1.689436,8.05849 2.537418,26.5 0.998174,21.70781 4.351348,69.69446 6.498582,93 8.805955,95.57762 21.970832,158.88866 41.413472,199.16105 13.10692,27.14893 27.75311,43.40041 47.5492,52.76084 16.32221,7.71782 31.3506,9.56498 62.07761,7.63002 23.96996,-1.50945 32.13156,-0.66319 42.47055,4.4037 4.88134,2.39222 8.95478,5.43969 13.25,9.9127 3.41101,3.55222 6.20184,6.88865 6.20184,7.41429 0,0.52565 -1.6875,1.23464 -3.75,1.57555 -6.49059,1.07283 -37.2684,0.48571 -48.99222,-0.93458 z m 97.79623,-22.61399 C 331.89648,484.39683 318.7605,470.0884 309.34352,463.358 c -8.4704,-6.05386 -21.37485,-11.91388 -31.96653,-14.51627 -9.59775,-2.35818 -23.03573,-2.78018 -59.37699,-1.86465 -19.53535,0.49215 -23.39439,-0.27556 -31.84272,-6.3347 C 162.12036,423.40312 143.29215,356.31513 132.51325,249.5 c -3.89054,-38.55389 -7.59961,-89.51349 -6.6014,-90.6978 0.32348,-0.3838 3.96315,3.87382 8.08815,9.46137 9.43568,12.78117 25.65825,29.1737 38.00527,38.40345 26.20723,19.59063 53.19836,32.23267 100.99473,47.30366 47.13064,14.86108 55.04798,17.46541 64.31004,21.15416 37.37462,14.88497 56.22303,33.10812 63.67632,61.56399 3.53524,13.49713 4.28148,22.4119 3.73396,44.60673 -0.55508,22.50127 -1.67377,31.63884 -7.24825,59.20444 -3.91314,19.3503 -12.06255,50.29288 -13.80595,52.41997 C 381.56783,495.48005 352.76769,508 348.97693,508 c -0.89333,0 -4.73483,-4.81771 -8.92292,-11.19042 z M 456.34621,431.75 c 1.31689,-5.26269 3.7445,-27.16586 4.61896,-41.67469 C 462.31983,367.59897 460.56648,343.1603 456.40396,326.5 449.56233,299.1167 438.16088,278.15772 420.56947,260.62639 408.34413,248.4428 395.61706,239.56277 377.5,230.57561 c -18.85825,-9.35484 -30.76758,-13.75193 -72,-26.58339 -39.56772,-12.3134 -52.81588,-17.13806 -70,-25.49227 -17.578,-8.54571 -29.73047,-16.8225 -41.87645,-28.52117 -23.46523,-22.60108 -35.59174,-46.67303 -44.96652,-89.261609 l -2.37356,-10.782829 2.84773,-2.027767 c 6.29835,-4.48482 32.62238,-16.274062 46.5596,-20.85176 16.5197,-5.42592 28.78574,-8.178871 47.3092,-10.61793 17.00411,-2.239 50.32212,-1.520989 67.5,1.45464 50.4776,8.743955 93.28497,30.53042 129.87054,66.096562 22.24864,21.628693 36.82283,41.551603 50.53867,69.086323 12.42231,24.93795 20.39208,50.26494 24.67858,78.42559 2.58794,17.00176 2.62314,53.98715 0.0685,72 -2.20613,15.55568 -8.1019,39.36852 -13.13828,53.06516 -8.389,22.81421 -24.64552,51.99407 -39.37955,70.68484 -5.46051,6.92691 -7.78492,8.46687 -6.79228,4.5 z"
         id="path47" />
      <path
         style="fill:#972d2c"
         d="M 253.66614,519.97765 C 174.4281,514.17482 102.54249,469.00633 60.893487,398.85119 18.934165,328.17333 13.739246,239.85585 47.067987,163.80741 53.769324,148.51651 70.786476,119 72.900797,119 c 0.388032,0 1.26928,11.1375 1.958329,24.75 3.358207,66.34305 9.593921,132.62662 16.722065,177.75 18.955059,119.99143 50.447069,170.85119 109.303619,176.52592 5.12574,0.49421 17.7839,0.37563 31.25204,-0.29276 26.30353,-1.30537 33.64773,-0.59066 43.43332,4.22677 C 281.9622,505.10672 294,516.00725 294,518.64861 c 0,0.94479 -1.42915,1.35295 -4.75,1.35656 -2.6125,0.003 -9.025,0.19281 -14.25,0.42214 -5.225,0.22934 -14.82524,0.027 -21.33386,-0.44966 z M 340.39047,496.25 c -9.41349,-14.3189 -25.30469,-30.61656 -35.91774,-36.83643 -19.83489,-11.62442 -38.54903,-15.31828 -68.06698,-13.4353 -30.56014,1.94946 -38.27361,1.25325 -47.51544,-4.28869 -22.87697,-13.71837 -41.01579,-69.68718 -52.36458,-161.57515 -4.52966,-36.67545 -11.33213,-118.64136 -9.96009,-120.01341 0.3214,-0.3214 0.99203,0.14409 1.49028,1.03442 2.80339,5.00938 16.43792,21.33361 24.55048,29.3936 27.22837,27.05189 61.00367,45.23582 116.8936,62.9331 52.26988,16.55102 62.75529,20.0823 74.16958,24.97888 35.17724,15.09057 51.5948,33.51649 58.43529,65.5837 1.88281,8.82636 2.23796,13.62349 2.25614,30.47528 0.0341,31.55339 -5.26295,63.65324 -18.00951,109.13768 l -2.56075,9.13768 -8.64537,4.23361 C 368.03813,500.48937 349.81093,508 348.47178,508 c -0.19616,0 -3.83275,-5.2875 -8.08131,-11.75 z M 457.42185,429.37656 C 461.48968,404.75292 463.06097,371.18329 461.06702,351.5 455.12539,292.84726 427.99414,254.11768 375,228.64021 357.52536,220.23909 343.90128,215.30464 303,202.5628 258.88532,188.8199 243.52005,182.89456 224.90602,172.44725 184.41776,149.72283 161.87803,117.24587 150.09744,64.657354 148.39191,57.043899 147.24206,50.417359 147.54221,49.931709 149.3545,46.999358 178.82907,33.105576 194,28.032344 c 13.19511,-4.412509 31.29812,-8.649952 45.5,-10.650366 16.22821,-2.285834 46.75012,-2.292942 63.5,-0.01479 32.45799,4.414616 63.79499,15.380415 91.9386,32.172208 C 457.43705,86.828885 500.32453,149.80683 513.74488,224 c 2.41445,13.34806 2.62807,16.76416 2.68897,43 0.0538,23.1694 -0.27601,30.55742 -1.76318,39.5 -7.43343,44.69806 -22.99801,81.72411 -48.85553,116.22079 -8.3359,11.12098 -9.2508,11.84647 -8.39329,6.65577 z"
         id="path46" />
      <path
         style="fill:#8e1918"
         d="M 250.78859,518.99001 C 176.60888,512.30509 110.72096,472.65347 68.336151,409.18939 42.428737,370.39743 28.21218,325.63777 26.350173,277 c -1.647259,-43.02831 7.00546,-83.52975 26.170876,-122.5 7.323341,-14.89101 19.503938,-34.91707 20.07183,-33 0.162925,0.55 1.008595,14.05 1.879267,30 8.785021,160.93449 27.380944,258.82358 57.845654,304.5 15.00035,22.49035 34.41746,36.40395 57.49233,41.19692 8.95392,1.85986 11.9684,1.96209 39.68987,1.34605 33.07391,-0.735 37.20335,-0.32595 46.57897,4.6139 5.51049,2.90338 17.8516,14.24589 16.72543,15.37206 -1.02644,1.02644 -31.97371,1.36606 -42.01581,0.46108 z m 90.26542,-23.18043 c -8.13096,-12.37232 -21.28748,-26.71682 -30.62563,-33.39103 -7.94746,-5.68024 -20.94359,-11.83832 -30.92838,-14.65509 -7.63823,-2.15479 -9.65057,-2.257 -44.5,-2.26016 -32.96447,-0.003 -36.88746,-0.17729 -40.5,-1.79957 -6.79843,-3.05296 -11.38696,-6.77894 -16.15107,-13.115 C 155.262,399.88405 139.34442,325.66462 130.07496,205.5 c -2.8459,-36.89292 -3.27042,-43.5 -2.79492,-43.5 0.2366,0 2.25604,2.5875 4.48766,5.75 16.18657,22.93856 42.30223,44.98066 71.2323,60.12137 21.64713,11.32915 38.47851,17.73927 83.35198,31.74406 49.99353,15.60274 64.21062,21.25148 80.10539,31.82749 27.61733,18.37594 38.94099,45.92133 37.22719,90.55708 -0.72273,18.82337 -2.78857,35.07929 -7.197,56.63263 -3.9494,19.30907 -12.26618,51.27984 -13.86077,53.28254 -1.30716,1.64171 -12.34323,6.83889 -24.83909,11.6974 -4.79177,1.86309 -8.86241,3.38743 -9.04588,3.38743 -0.18346,0 -3.64298,-5.03569 -7.68781,-11.19042 z M 458.38446,428.5 c 1.76198,-8.88147 3.76251,-30.09705 4.29043,-45.5 1.82666,-53.29513 -11.7871,-94.15543 -41.10542,-123.37361 C 409.18207,247.2813 396.59099,238.5472 377.5,229.05658 358.98117,219.8504 347.42951,215.57469 307.5,203.14694 271.75895,192.02282 261.00525,188.29111 245.46063,181.6183 191.66515,158.52561 163.1747,122.83934 150.46116,62.624838 148.01884,51.057404 147.98642,50.481047 149.70473,49.178743 150.69213,48.430398 158.25,44.513295 166.5,40.474068 189.37265,29.275546 211.97032,22.281006 238,18.343047 c 15.9087,-2.406785 49.99027,-2.408453 66.5,-0.0033 51.75239,7.539477 97.23016,30.008887 134.87054,66.636103 31.78277,30.92727 53.13869,65.85392 66.12067,108.13737 12.42563,40.4714 14.30974,85.8275 5.37475,129.38674 -6.67886,32.56036 -24.45896,71.57285 -45.11965,99 -7.83744,10.40424 -8.08366,10.63835 -7.36185,7 z"
         id="path45" />
    </g>
  </g>
</svg>
