<svg xmlns="http://www.w3.org/2000/svg" viewBox="0 0 100 100">
	<path fill="currentColor" d="M13.996 0a2.5 2.5 0 0 0-2.5 2.5V70H0v22h11.496v5.5a2.5 2.5 0 0 0 2.5 2.5h72a2.5 2.5 0 0 0 2.5-2.5V21.625c.027-1.113.004-1.777-.732-2.59L69.46.732A2.5 2.5 0 0 0 67.662 0zm2.5 5h48.902l1.252 14.568a2.5 2.5 0 0 0 2.278 2.278l14.568 1.252V95h-67v-3H80V70H16.496zm3.98 68q3.556 0 5.547 1.139q2.005 1.127 2.577 3.125l-3.827.545q-.404-1.069-1.523-1.682q-1.108-.624-2.773-.623q-2.526 0-4.022 1.217q-1.484 1.217-1.484 3.611q0 2.583 1.51 3.879q1.51 1.285 3.956 1.285q1.212 0 2.422-.355q1.224-.366 2.096-.881v-1.84h-4.412v-2.443h8.305v5.777q-1.211.891-3.516 1.574a16.4 16.4 0 0 1-4.646.672q-2.995 0-5.221-.95q-2.226-.96-3.346-2.732A7.13 7.13 0 0 1 11 80.451q0-2.265 1.25-4.027t3.658-2.701Q17.743 73 20.477 73m11.913.248h6.183q3.514 0 4.582.217q1.64.327 2.746 1.426q1.108 1.087 1.108 2.818q0 1.336-.639 2.246a4.6 4.6 0 0 1-1.627 1.436q-.976.514-1.992.681q-1.38.21-3.996.21h-2.512v5.47H32.39zm16.48 0h4.504l3.826 4.66l3.75-4.66h4.465l-5.935 7.045L66 87.752h-4.646l-4.233-5.016l-4.242 5.016h-4.623l6.523-7.568zm-12.627 2.453v4.115h2.108q2.277.001 3.046-.226q.769-.228 1.198-.713a1.62 1.62 0 0 0 .443-1.127q0-.792-.611-1.307q-.613-.514-1.551-.642q-.69-.1-2.771-.1z" color="currentColor" />
	<path fill="currentColor" d="m70.771 9.115l8.61 8.61l-7.928-.682z" color="currentColor" />
	<path fill="currentColor" d="M31.107 14.432c-4.23 0-7.694 3.455-7.694 7.672c0 1.634.521 3.153 1.405 4.401l5.35 9.249c.75.979 1.248.793 1.87-.052L37.94 25.66c.119-.216.212-.446.294-.68c.364-.89.567-1.86.567-2.876c0-4.217-3.465-7.672-7.694-7.672m0 3.595a4.06 4.06 0 0 1 4.088 4.077a4.06 4.06 0 0 1-4.088 4.077a4.06 4.06 0 0 1-4.089-4.077a4.06 4.06 0 0 1 4.09-4.077" />
	<path fill="currentColor" d="M24.473 50.66c-1.522 3.044-.752 6.755 2.27 8.47c3.02 1.713 6.483.694 8.467-2.27c1.14-1.974 1.047-4.328-.022-6.18L45.6 42.223c2.731 1.044 5.912.02 7.485-2.524l10.867 2.277c.208 1.903 1.277 3.691 3.048 4.714c2.947 1.701 6.767.677 8.468-2.27c1.643-2.845.728-6.485-1.988-8.266a1.7 1.7 0 0 0-.596-.344c-2.9-1.462-6.51-.435-8.153 2.41c-.066.115-.121.232-.179.349l-10.554-2.212a6.23 6.23 0 0 0-2.799-5.081a1.7 1.7 0 0 0-.596-.344c-2.9-1.462-6.51-.435-8.153 2.41c-1.26 2.182-1.023 4.84.379 6.764L32.7 48.277l-.074-.028c-2.9-1.461-6.684-.528-8.153 2.411m2.994 1.729a2.716 2.716 0 0 1 3.745-1.003a2.715 2.715 0 0 1 1.004 3.745a2.716 2.716 0 0 1-3.745 1.004a2.716 2.716 0 0 1-1.004-3.746m17.977-17.317a2.716 2.716 0 0 1 3.745-1.003a2.715 2.715 0 0 1 1.004 3.745a2.716 2.716 0 0 1-3.745 1.004a2.716 2.716 0 0 1-1.004-3.746m22.281 4.879a2.716 2.716 0 0 1 3.745-1.003a2.715 2.715 0 0 1 1.004 3.744a2.716 2.716 0 0 1-3.745 1.004a2.716 2.716 0 0 1-1.004-3.745" color="currentColor" />
</svg>
