<svg xmlns="http://www.w3.org/2000/svg" viewBox="0 0 48 48">
	<defs>
		<mask id="SVG91XdkcRe">
			<g fill="none" stroke="#fff" stroke-width="4">
				<path stroke-linecap="round" stroke-linejoin="round" d="M26 36H6a2 2 0 0 1-2-2V8a2 2 0 0 1 2-2h36a2 2 0 0 1 2 2v26a2 2 0 0 1-2 2h-8M12 14h24m-24 7h6m-6 7h4" />
				<path fill="#555" d="M30 33a6 6 0 1 0 0-12a6 6 0 0 0 0 12Z" />
				<path fill="#555" stroke-linecap="round" stroke-linejoin="round" d="m30 40l4 2V31.472S32.86 33 30 33s-4-1.5-4-1.5V42z" />
			</g>
		</mask>
	</defs>
	<path fill="currentColor" d="M0 0h48v48H0z" mask="url(#SVG91XdkcRe)" />
</svg>
