<svg xmlns="http://www.w3.org/2000/svg" viewBox="0 0 24 24">
	<g fill="none" stroke="currentColor" stroke-linecap="round" stroke-linejoin="round" stroke-width="1.5">
		<path d="m7 7l1.227 1.057C8.742 8.502 9 8.724 9 9s-.258.498-.773.943L7 11m4 0h3" />
		<path d="M12 21c3.75 0 5.625 0 6.939-.955a5 5 0 0 0 1.106-1.106C21 17.625 21 15.749 21 12s0-5.625-.955-6.939a5 5 0 0 0-1.106-1.106C17.625 3 15.749 3 12 3s-5.625 0-6.939.955A5 5 0 0 0 3.955 5.06C3 6.375 3 8.251 3 12s0 5.625.955 6.939a5 5 0 0 0 1.106 1.106C6.375 21 8.251 21 12 21" />
	</g>
</svg>
