<svg xmlns="http://www.w3.org/2000/svg" viewBox="0 0 24 24">
	<g fill="none">
		<path d="M19.781 14.555L13.5 16h-.375a1.875 1.875 0 0 0 0-3.75H8.438a2.25 2.25 0 0 0-1.594.656L4.5 15.25v5.25h6.75l6-1.5l3.64-1.552a1.555 1.555 0 0 0-1.109-2.893M4.5 15.25v5.25H1v-5.25z" />
		<path d="M18.5 2a3.5 3.5 0 1 1-2 6.373l.01-.008a3.5 3.5 0 1 1-.01-5.738a3.5 3.5 0 0 1 2-.627" clip-rule="evenodd" />
		<path stroke="currentColor" stroke-linecap="square" stroke-width="2" d="M4.5 20.5h6.75l6-1.5l3.64-1.552a1.555 1.555 0 0 0-1.109-2.893L13.5 16h-.375M4.5 20.5v-5.25m0 5.25H1v-5.25h3.5m0 0l2.344-2.344a2.25 2.25 0 0 1 1.593-.656h4.688a1.875 1.875 0 0 1 0 3.75H11m6-13.663a3.5 3.5 0 1 1 0 6.326M14.5 9a3.5 3.5 0 1 1 0-7a3.5 3.5 0 0 1 0 7Z" />
	</g>
</svg>
