<svg xmlns="http://www.w3.org/2000/svg" viewBox="0 0 24 24">
	<g fill="none" stroke="currentColor" stroke-width="1.5">
		<path d="M10 10a2 2 0 1 0 4 0a2 2 0 0 0-4 0Z" />
		<path stroke-linecap="round" d="M18.245 15a8 8 0 1 0-12.49 0" />
		<path d="M3 18.5c0-1.404 0-2.107.303-2.611c.132-.218.3-.406.497-.552C4.254 15 4.886 15 6.15 15h11.7c1.264 0 1.896 0 2.35.337c.197.146.365.334.497.552c.303.504.303 1.207.303 2.611s0 2.107-.303 2.611c-.132.218-.3.406-.497.552c-.454.337-1.086.337-2.35.337H6.15c-1.264 0-1.896 0-2.35-.337a1.9 1.9 0 0 1-.497-.552C3 20.607 3 19.904 3 18.5Z" />
		<path stroke-linecap="round" stroke-linejoin="round" d="M11 18h2m2.89-11.39l2.012-2.01" />
	</g>
</svg>
