<svg xmlns="http://www.w3.org/2000/svg" viewBox="0 0 24 24">
	<path fill="currentColor" fill-rule="evenodd" d="M3.172 5.172C2 6.343 2 8.229 2 12s0 5.657 1.172 6.828S6.229 20 10 20h4c3.771 0 5.657 0 6.828-1.172S22 15.771 22 12s0-5.657-1.172-6.828S17.771 4 14 4h-4C6.229 4 4.343 4 3.172 5.172M12.75 10a.75.75 0 0 0-1.5 0v.701l-.607-.35a.75.75 0 0 0-.75 1.298l.607.35l-.607.351a.75.75 0 1 0 .75 1.3l.607-.351V14a.75.75 0 0 0 1.5 0v-.7l.607.35a.75.75 0 0 0 .75-1.3L13.5 12l.607-.35a.75.75 0 0 0-.75-1.3l-.607.35zm-6.017-.75a.75.75 0 0 1 .75.75v.7l.606-.35a.75.75 0 0 1 .75 1.3l-.607.35l.607.35a.75.75 0 1 1-.75 1.3l-.606-.35v.7a.75.75 0 0 1-1.5 0v-.701l-.608.35a.75.75 0 0 1-.75-1.298L5.232 12l-.607-.35a.75.75 0 1 1 .75-1.3l.608.351V10a.75.75 0 0 1 .75-.75m11.285.75a.75.75 0 0 0-1.5 0v.701l-.607-.35a.75.75 0 0 0-.75 1.298l.607.35l-.608.351a.75.75 0 0 0 .75 1.3l.608-.351V14a.75.75 0 0 0 1.5 0v-.7l.607.35a.75.75 0 0 0 .75-1.3l-.607-.35l.607-.35a.75.75 0 0 0-.75-1.3l-.607.35z" clip-rule="evenodd" />
</svg>
